<svg width="15" height="15" viewBox="0 0 15 15" fill="none" xmlns="http://www.w3.org/2000/svg">
<path d="M14.4516 7.26944C14.4511 3.25462 11.2165 0 7.22581 0C3.23513 0 0 3.2551 0 7.27041C0 10.8848 2.62126 13.8829 6.05491 14.4458L6.09635 14.4516V9.37163H4.26147V7.26944H6.09635V5.66855C6.0872 5.58759 6.08238 5.49353 6.08238 5.39851C6.08238 3.98137 7.22436 2.83234 8.6328 2.83234C8.70075 2.83234 8.7682 2.83525 8.83518 2.84009L8.82651 2.83961C9.40425 2.84785 9.96319 2.89924 10.5086 2.99087L10.4441 2.98166V4.77066H9.53242C9.49098 4.76484 9.44328 4.76145 9.39509 4.76145C8.81832 4.76145 8.35044 5.23173 8.35044 5.81255C8.35044 5.84551 8.35189 5.878 8.35478 5.91048L8.3543 5.90612V7.26944H10.3583L10.0379 9.37163H8.3543V14.4516C11.8299 13.8824 14.4511 10.8838 14.4516 7.26944Z" fill="white"/>
</svg>
