<svg width="16" height="16" viewBox="0 0 16 16" fill="none" xmlns="http://www.w3.org/2000/svg">
<path fill-rule="evenodd" clip-rule="evenodd" d="M7.63559 0C11.8527 0 15.2712 3.50468 15.2712 7.82871C15.2712 11.2869 13.0859 14.2205 10.0538 15.2566C9.66665 15.3338 9.52921 15.0893 9.52921 14.8808C9.52921 14.6227 9.53837 13.7798 9.53837 12.7322C9.53837 12.0022 9.29404 11.5258 9.01992 11.283C10.7204 11.0891 12.5071 10.427 12.5071 7.42009C12.5071 6.5649 12.2108 5.86705 11.7206 5.31881C11.8 5.12105 12.0619 4.32476 11.6458 3.24662C11.6458 3.24662 11.0059 3.03684 9.5483 4.04932C8.93822 3.87599 8.28461 3.78878 7.63559 3.78573C6.98656 3.78878 6.33372 3.87599 5.7244 4.04932C4.26524 3.03684 3.62385 3.24662 3.62385 3.24662C3.20924 4.32476 3.47114 5.12105 3.54979 5.31881C3.06187 5.86705 2.76332 6.5649 2.76332 7.42009C2.76332 10.4193 4.54623 11.0916 6.24209 11.2893C6.02372 11.4848 5.82595 11.8296 5.75723 12.3359C5.322 12.5359 4.21637 12.8822 3.53527 11.6857C3.53527 11.6857 3.13135 10.9335 2.36474 10.8785C2.36474 10.8785 1.62027 10.8686 2.31282 11.3542C2.31282 11.3542 2.81295 11.5947 3.16037 12.4995C3.16037 12.4995 3.60858 13.8968 5.7328 13.4234C5.73662 14.0778 5.74349 14.6945 5.74349 14.8808C5.74349 15.0877 5.60299 15.3299 5.22198 15.2574C2.18759 14.2228 0 11.2876 0 7.82871C0 3.50468 3.41922 0 7.63559 0Z" fill="white"/>
</svg>
