<svg width="16" height="16" viewBox="0 0 16 16" fill="none" xmlns="http://www.w3.org/2000/svg">
<path d="M7.63561 8.97771C8.37531 8.97771 8.98078 8.37521 8.98078 7.63253C8.98078 7.34023 8.88534 7.06881 8.72726 6.84809C8.48268 6.51105 8.08599 6.28735 7.63859 6.28735C7.19119 6.28735 6.7945 6.50807 6.54992 6.84809C6.39184 7.06881 6.2964 7.34023 6.2964 7.63253C6.29342 8.37521 6.89591 8.97771 7.63561 8.97771Z" fill="white"/>
<path d="M10.5703 5.99222V4.86478V4.69775H10.4033L9.27588 4.70074L9.28184 5.99521L10.5703 5.99222Z" fill="white"/>
<path d="M9.72346 7.63551C9.72346 8.78681 8.78691 9.72337 7.63561 9.72337C6.4843 9.72337 5.54775 8.78681 5.54775 7.63551C5.54775 7.35812 5.60442 7.09267 5.70285 6.85107H4.56348V9.97689C4.56348 10.3796 4.89157 10.7076 5.29423 10.7076H9.97699C10.3796 10.7076 10.7077 10.3796 10.7077 9.97689V6.85107H9.56837C9.66978 7.09267 9.72346 7.35812 9.72346 7.63551Z" fill="white"/>
<path d="M7.63559 0C3.41812 0 0 3.41812 0 7.63559C0 11.8531 3.41812 15.2712 7.63559 15.2712C11.8531 15.2712 15.2712 11.8531 15.2712 7.63559C15.2712 3.41812 11.8531 0 7.63559 0ZM11.4534 6.85115V9.97697C11.4534 10.7912 10.7912 11.4534 9.97697 11.4534H5.29421C4.47994 11.4534 3.81779 10.7912 3.81779 9.97697V6.85115V5.29122C3.81779 4.47696 4.47994 3.81481 5.29421 3.81481H9.97697C10.7912 3.81481 11.4534 4.47696 11.4534 5.29122V6.85115Z" fill="white"/>
</svg>
