<svg width="16" height="16" viewBox="0 0 16 16" fill="none" xmlns="http://www.w3.org/2000/svg">
<path fill-rule="evenodd" clip-rule="evenodd" d="M7.54091 0C3.3589 0 0 3.38611 0 7.6039C0 10.7345 1.83789 13.3542 4.49966 14.5684C4.49966 13.1424 4.48972 13.3262 5.57626 8.68958C4.97916 7.48461 5.44341 5.49516 6.7804 5.49516C8.63585 5.49516 7.37522 8.24607 7.16066 9.32861C6.97053 10.1594 7.60428 10.7987 8.36479 10.7987C9.82242 10.7987 10.7723 8.94525 10.7723 6.77323C10.7723 5.11167 9.6323 3.89758 7.66766 3.89758C4.17438 3.89758 3.28865 7.78796 4.49966 9.0091C4.80432 9.47029 4.49966 9.49189 4.49966 10.0955C4.28815 10.7338 2.59839 9.80603 2.59839 7.41226C2.59839 5.23946 4.3729 2.68401 7.98453 2.68401C10.8357 2.68401 12.7369 4.79229 12.7369 7.02899C12.7369 10.0318 11.0892 12.2046 8.68166 12.2046C7.85778 12.2046 7.09728 11.757 6.84377 11.2457C6.38335 13.0366 6.29019 13.9446 5.57626 14.9517C6.27339 15.1434 6.97053 15.2712 7.73103 15.2712C11.913 15.2712 15.2712 11.885 15.2712 7.66802C15.0818 3.38634 11.7229 0 7.54091 0Z" fill="white"/>
</svg>
