<svg width="137" height="137" viewBox="0 0 137 137" fill="none" xmlns="http://www.w3.org/2000/svg">
<path d="M76.5479 72.5295L76.5685 72.502H48.5686C48.1694 72.502 47.7942 72.7156 47.5946 73.0636L42.0634 82.6566L40.339 85.6441C40.0292 85.8267 39.6644 86.0369 39.3546 86.2161H31.693C30.829 86.2161 30.2887 85.2788 30.7223 84.5311L31.8031 82.6566L37.6543 72.502L50.5993 50.0597C51.0365 49.3085 52.1172 49.3085 52.5475 50.0597L56.7053 57.2682L62.5634 67.4229L64.0124 69.9349C64.2121 70.2829 64.5804 70.4965 64.9865 70.4965H76.0453L71.9805 63.4396L71.829 63.1846L68.4181 57.2682L65.1483 51.5896L64.1054 49.7875L62.5634 47.117V47.1136L58.5742 40.1945C58.3746 39.8464 57.9994 39.6328 57.6002 39.6328H45.5466C45.1474 39.6328 44.7722 39.8464 44.5726 40.1945L25.9415 72.502L20.0903 82.6566L18.0355 86.2161L13.1514 94.6858C12.7212 95.4335 13.2581 96.3708 14.1289 96.3708H45.2162C45.6223 96.3708 45.9906 96.1571 46.1903 95.8091L51.7214 86.2161L53.4527 83.2183C53.6523 82.8703 54.0275 82.6566 54.4267 82.6566H82.4129L82.3888 82.6428L76.5479 72.5295Z" fill="#17191F"/>
<path d="M113.435 72.5015H90.2573C89.3865 72.5015 88.8461 71.5608 89.2832 70.8096L101.478 49.787L106.379 41.3415C106.816 40.5937 106.272 39.653 105.409 39.6496L97.3201 39.6324L95.6439 39.6289L95.6404 39.6324H60.4229L66.2775 49.787H87.7963C88.6637 49.787 89.2075 50.7277 88.7704 51.4789L77.9181 70.1756L85.0669 82.6562H116.949C117.349 82.6562 117.717 82.4425 117.916 82.0945L122.494 74.2106C122.931 73.4594 122.387 72.5222 121.527 72.5187L113.435 72.5015Z" fill="#17191F"/>
</svg>
