<svg width="137" height="137" viewBox="0 0 137 137" fill="none" xmlns="http://www.w3.org/2000/svg">
<path d="M58.594 25.4913C58.508 25.5632 58.1639 25.6917 57.8067 25.7919C56.1318 26.2493 53.4702 27.1369 52.44 27.5953C50.079 28.6397 48.992 29.169 47.0166 30.2994C46.2728 30.7143 43.6395 32.4601 43.3106 32.7464C43.2104 32.8325 42.8531 33.1188 42.4949 33.3901C39.9051 35.3504 36.4846 38.8286 34.5961 41.4184C31.4761 45.6537 29.1434 50.2756 27.8126 54.8549C27.5839 55.5997 27.3552 56.2576 27.2833 56.3001C27.2124 56.3578 27.1831 56.4863 27.2124 56.5865C27.255 56.7301 27.3693 56.6725 27.6274 56.4154C30.9043 52.9523 31.9052 52.1508 34.5819 50.7765C36.2558 49.9325 37.3002 49.5176 37.4004 49.6754C37.4288 49.7321 36.9713 50.1905 36.3844 50.7056C35.7984 51.2066 35.011 51.9788 34.6528 52.4079C34.2814 52.8521 33.8948 53.3096 33.7804 53.4239C33.5366 53.682 32.2351 55.4561 31.8343 56.0714C31.133 57.1593 29.4733 60.422 29.4733 60.7226C29.4733 60.8086 29.4156 60.9796 29.3296 61.1233C29.1727 61.4239 28.5716 63.2547 28.3429 64.1564C27.1406 69.0504 27.0688 73.7442 28.1132 78.9672C28.3854 80.3122 29.2871 83.246 29.8306 84.5484C30.3173 85.7355 31.3617 87.7677 31.4619 87.7677C31.5196 87.7677 31.6198 86.9094 31.6623 85.865C31.8769 81.5144 32.9647 77.6222 34.9534 74.0731C35.4543 73.1865 36.3702 71.8841 36.4987 71.8841C36.7426 71.8841 36.7851 72.7565 36.5564 73.3869C36.442 73.7583 36.1982 74.8746 36.0271 75.8623C35.6263 78.2233 35.598 82.5021 35.9694 84.763C37.3144 93.02 41.908 99.8309 48.4051 103.194C49.7217 103.881 51.7821 104.711 51.8823 104.611C51.9249 104.568 51.7821 104.253 51.5392 103.909C50.9665 103.065 49.9362 101.077 49.3928 99.7883C48.5052 97.5984 48.0761 96.0965 47.6319 93.5634C47.0743 90.3726 47.1461 85.1921 47.7614 84.849C48.0761 84.6628 48.1187 84.6911 48.1612 85.0777C48.9344 91.8461 52.2831 98.5435 57.5061 103.781C59.1658 105.44 61.456 107.344 63.1015 108.446C63.4588 108.675 63.7735 108.918 63.7877 108.975C63.817 109.046 63.9021 109.09 63.9739 109.09C64.0457 109.09 64.4465 109.318 64.8756 109.591C65.834 110.206 66.9219 110.821 67.9379 111.336C68.6534 111.68 68.7395 111.694 69.0826 111.493C69.2971 111.379 69.9842 110.993 70.6137 110.663C77.4539 106.986 83.2204 101.176 86.2544 94.8942C87.3848 92.519 87.9141 91.1022 88.5011 88.8414C88.83 87.5531 89.2884 84.935 89.2884 84.3046C89.2884 83.1316 89.7893 83.9189 89.9897 85.4066C90.3754 88.2544 90.3186 90.7875 89.7893 93.9217C89.2308 97.2127 87.7856 101.019 86.1117 103.623C85.7828 104.11 85.5531 104.554 85.5966 104.582C85.6968 104.682 88.0143 103.709 89.002 103.151C89.4311 102.923 89.9604 102.636 90.175 102.522C91.0058 102.092 93.1371 100.389 94.2534 99.2732C98.0312 95.4377 100.45 90.5153 101.394 84.6911C101.738 82.5881 101.738 78.1231 101.394 76.177C101.123 74.574 100.679 72.7858 100.35 71.9124C100.193 71.4833 100.164 71.2546 100.264 71.1544C100.45 70.9682 101.28 72.041 102.282 73.73C104.428 77.3651 105.487 81.0711 105.859 86.2658L105.974 87.8395L106.631 86.4803C109.15 81.3424 110.352 75.1893 109.909 69.7659C109.823 68.6497 109.68 67.4333 109.609 67.0476C109.523 66.6752 109.365 65.9172 109.265 65.3728C109.008 64.0996 108.478 62.1242 108.335 61.939C108.278 61.8672 108.148 61.5089 108.034 61.1517C107.605 59.7207 105.731 56.2434 104.486 54.5695C103.426 53.1385 101.895 51.4778 100.492 50.2472C100.164 49.9467 99.949 49.6754 100.035 49.6177C100.221 49.5034 101.524 50.0185 102.883 50.7482C105.029 51.9069 106.388 52.9088 108.092 54.5978C109.036 55.5279 109.837 56.2576 109.866 56.215C110.009 56.0714 108.593 51.7075 108.292 51.3635C108.234 51.2775 108.178 51.1347 108.178 51.0346C108.178 50.4476 105.988 46.2123 104.486 43.908C101.666 39.5583 98.3895 36.081 93.8678 32.6321C93.4954 32.3457 91.277 30.9005 90.2903 30.2852C89.3168 29.6841 85.5673 27.8382 84.7091 27.5234C84.4368 27.4374 84.0796 27.2947 83.9217 27.2229C83.4643 27.0367 81.59 26.4214 80.2015 26.0206C78.4123 25.4913 78.4123 25.4913 78.4123 25.5915C78.4123 25.634 79.0135 26.3354 79.7431 27.151C81.7469 29.3694 82.4624 30.2994 83.8074 32.3892C86.6268 36.7814 88.244 40.8456 89.088 45.6679C89.4028 47.3852 89.4311 51.5922 89.1599 53.0667C88.3584 57.3162 86.3546 60.3643 83.4643 61.681C82.7204 62.0241 82.5768 62.0392 81.003 61.9673C79.5286 61.8955 78.47 61.681 78.1836 61.3946C78.1269 61.3379 77.9832 61.2944 77.883 61.2944C77.7687 61.2944 77.1968 60.9371 76.6099 60.508C75.35 59.5779 74.4634 58.3322 73.9625 56.7727C73.5041 55.37 73.5041 53.0667 73.9625 51.578C74.6496 49.3314 76.0088 47.0705 77.4681 45.7397C78.4275 44.8673 80.0153 43.9656 81.3745 43.5507C81.8329 43.407 82.2195 43.2359 82.2337 43.1641C82.3055 42.9637 80.8594 42.0195 79.8433 41.6046C78.2554 40.96 76.1231 41.2038 73.6194 42.3343C72.4738 42.8494 72.3888 42.8494 70.7574 42.6206C68.7395 42.3343 68.0381 42.3484 67.0797 42.6632C65.6194 43.1499 64.7896 43.7369 62.3567 46.0403C60.1252 48.1726 59.2944 48.4731 56.2471 48.2586C55.3313 48.2009 54.5581 48.1726 54.5298 48.2009C54.3294 48.4155 56.0316 50.2765 57.0912 50.9769C58.3076 51.7926 59.1091 52.0931 60.7405 52.337L61.7414 52.4939L61.7849 53.2094C61.8993 54.8842 61.0836 58.2897 60.2244 59.8067C59.2518 61.5241 58.1932 62.2102 56.5184 62.2244C53.8568 62.2244 51.2094 60.336 49.6924 57.3455C49.3776 56.7302 49.0487 55.9286 48.9485 55.5704C48.8342 55.2132 48.7056 54.7689 48.6338 54.5695C48.3474 53.7387 48.0761 51.3635 48.0761 49.6319C48.0761 46.2832 48.8625 42.3768 50.1933 39.0432C50.5081 38.2417 51.3096 36.4383 51.4958 36.1094C53.2698 32.8608 53.785 32.0451 55.4315 29.8845C56.3473 28.6822 58.336 26.3788 58.6082 26.2068C58.6942 26.1492 58.8794 25.9346 59.0089 25.7342C59.2377 25.3911 59.2235 25.377 58.9796 25.377C58.8369 25.377 58.6649 25.4337 58.594 25.4913ZM74.6921 69.0221C78.0834 69.4654 82.4057 70.4531 83.8215 71.1109L84.2799 71.3255V72.6421C84.2799 77.5504 83.4208 83.3603 82.0475 87.6968C81.2318 90.3007 79.6288 93.7062 78.4416 95.4235C78.1552 95.8101 77.797 96.3252 77.6401 96.5681C76.5815 98.0993 74.4199 100.318 72.6884 101.634C71.4152 102.607 69.04 104.081 68.7395 104.081C68.4389 104.081 67.8236 103.752 66.3926 102.822C61.7849 99.8309 58.3936 95.5672 56.1753 90.0143C55.56 88.4832 54.6441 85.5503 54.3577 84.1902C53.6281 80.7129 53.2415 77.1496 53.1848 73.4011L53.1555 71.2688L53.9428 70.9824C54.3719 70.8255 54.9305 70.6535 55.1592 70.5958C56.6044 70.2102 57.8208 69.8945 58.3936 69.7659C59.6526 69.4654 63.1866 68.9937 64.9616 68.8784C67.265 68.7215 73.1184 68.8075 74.6921 69.0221Z" fill="#9A0606"/>
<path d="M61.213 74.3595C59.868 74.7461 58.8094 75.748 57.9795 77.3935C57.1062 79.1392 56.7196 81.5144 56.8633 84.1193C57.0202 87.1099 57.764 89.3424 59.0381 90.7592C60.126 91.9605 60.8415 92.2752 62.4578 92.2752C63.574 92.2752 63.8462 92.2185 64.5475 91.8745C66.2072 91.0739 67.538 88.9416 67.7101 86.8376L67.7526 86.28L66.7507 86.0938C65.3916 85.8651 65.3916 85.8651 65.3916 86.2658C65.3916 86.4511 65.263 86.9813 65.091 87.4104C64.0324 90.244 61.5135 90.3726 60.2971 87.6817C59.782 86.5371 59.61 85.3065 59.6251 82.9738C59.6534 79.0674 60.5693 77.0069 62.3576 76.8066C62.9303 76.7347 63.1307 76.7924 63.6742 77.1355C64.419 77.6222 64.8481 78.3661 65.1912 79.7971L65.4341 80.7422L66.0929 80.6562C67.6666 80.47 67.7526 80.4266 67.7101 79.9691C67.6241 79.1392 67.0948 77.4219 66.7507 76.8349C65.764 75.1468 64.5759 74.3453 62.8727 74.2451C62.2867 74.2026 61.6137 74.2451 61.213 74.3595ZM72.6609 74.3737C71.8887 74.5882 71.1013 75.075 70.4284 75.7621C69.8707 76.334 69.1118 77.7943 69.0692 78.3954C69.0409 78.7961 69.0692 78.8103 69.9709 78.9814C70.486 79.0816 71.0012 79.1676 71.1155 79.1676C71.2441 79.1676 71.5021 78.7961 71.7308 78.3236C72.2318 77.2791 73.0191 76.7205 74.0352 76.7205C75.3508 76.7205 76.2525 77.522 76.382 78.7668C76.4822 79.8405 76.3102 80.4559 75.7374 80.9852C75.1363 81.5579 74.5068 81.7574 73.2904 81.7574H72.3896L72.4321 83.0031L72.4747 84.2621L73.6911 84.2762C75.4227 84.2904 76.1665 84.7488 76.6249 86.0361C76.882 86.7809 76.8971 87.2668 76.6675 87.9255C76.2667 89.0843 75.2941 89.7715 74.0635 89.7715C72.8329 89.7715 71.7592 88.9983 71.3159 87.797C71.1732 87.4246 71.0295 87.0664 70.9728 87.0097C70.9151 86.9378 70.3575 87.038 69.7422 87.2384C68.6401 87.5673 68.6118 87.5966 68.6543 87.9974C68.7828 89.142 70.3282 91.1164 71.5739 91.7459C74.4501 93.1769 78.1703 91.8461 79.1003 89.0701C79.9018 86.6949 79.1438 84.1193 77.3688 83.2176L76.6968 82.8594L77.1542 82.6307C78.2128 82.1014 78.986 80.4842 78.986 78.8103C78.986 75.5901 75.9813 73.4871 72.6609 74.3737Z" fill="#9A0606"/>
</svg>
