<svg width="137" height="137" viewBox="0 0 137 137" fill="none" xmlns="http://www.w3.org/2000/svg">
<path d="M29.2451 70.4336H64.9431V110.999H29.2451V70.4336Z" fill="#17191F"/>
<path d="M39.4863 63.0517C41.9812 64.7196 44.9388 65.5659 48.2772 65.5659C51.2832 65.5659 54.004 64.9884 56.3656 63.8496C56.8325 63.6216 57.2865 63.3797 57.7233 63.1269V65.5659H62.5088V49.8161H57.7233V54.0068C57.7233 54.7703 57.5877 55.4607 57.3048 56.1199C56.1999 58.7707 53.1326 59.9331 52.188 60.2331C52.1406 60.245 52.0987 60.2579 52.061 60.2697C51.9749 60.2934 51.9222 60.3095 51.9201 60.3106C50.855 60.5977 49.6651 60.7439 48.3826 60.7439C46.1696 60.7439 44.204 60.1192 42.5385 58.8868C40.8494 57.6361 39.5218 55.8951 38.5933 53.7111C37.6078 51.4077 37.1667 47.6783 37.1667 45.0039C37.1667 41.9896 37.7003 38.9431 38.5944 36.8537C39.5218 34.6707 40.8494 32.9297 42.5385 31.6791C44.204 30.4467 46.1696 29.8219 48.3826 29.8219C49.6661 29.8219 50.8582 29.9682 51.9039 30.251C51.9039 30.251 51.9599 30.2682 52.061 30.2962C52.0987 30.308 52.1406 30.3209 52.188 30.3327C53.1326 30.6327 56.1999 31.7952 57.3069 34.4503C57.5877 35.1052 57.7233 35.7956 57.7233 36.5591V40.7497H62.5088V25H57.7233V27.4389C57.2865 27.1862 56.8314 26.9432 56.3634 26.7163C54.003 25.5775 51.2832 25 48.2772 25C44.9399 25 41.9823 25.8463 39.4863 27.5153C37.0053 29.1778 35.0602 31.5027 33.7035 34.4266C32.4168 37.2075 31.6787 41.0627 31.6787 45.0039C31.6787 48.2719 32.2102 52.9132 33.7035 56.1392C35.0602 59.0632 37.0053 61.3881 39.4863 63.0517Z" fill="#17191F"/>
<path d="M73.0557 25H108.754V65.5659H73.0557V25Z" fill="#FF8025"/>
<path d="M102.173 92.1806C100.031 90.2872 96.5565 88.7739 91.8465 87.6841C89.3722 87.0976 87.4567 86.4679 86.1572 85.8144C84.9485 85.1988 84.1329 84.5183 83.7335 83.787C83.3236 83.0461 83.1155 82.1496 83.1155 81.1246C83.1155 79.5616 83.7789 78.2201 85.1419 77.0245C86.1625 76.1344 87.5349 75.5652 89.2221 75.333L89.2581 75.3287C89.5856 75.2941 89.9437 75.2768 90.3209 75.2768C91.5814 75.2768 92.7509 75.4237 93.7821 75.7089L93.93 75.7521C93.968 75.764 94.0103 75.7769 94.0568 75.7888C94.9844 76.0912 97.9976 77.2578 99.0837 79.9224C99.2073 80.2227 99.3024 80.524 99.3669 80.82C99.4503 81.2045 99.4936 81.616 99.4936 82.0437V82.3343L99.6299 83.9437H104.192V70.4336H99.4936V72.8833C99.0636 72.6284 98.6167 72.3854 98.1571 72.1564C95.9944 71.0925 93.5275 70.5135 90.7995 70.439C88.2692 70.4736 86.0156 70.9434 84.1033 71.8367C82.0832 72.7753 80.4942 74.079 79.3817 75.711C78.2607 77.3517 77.6923 79.2203 77.6923 81.265C77.6923 82.8636 77.9808 84.3044 78.5471 85.5466C79.0806 86.7228 79.8677 87.7457 80.8851 88.5882C82.9285 90.2764 86.2449 91.6384 90.7404 92.6343C94.3072 93.4465 96.8016 94.5039 98.154 95.7752C99.0393 96.6134 99.6088 97.4948 99.8962 98.4777C100.043 98.954 100.118 99.4671 100.118 99.9996C100.118 101.701 99.3996 103.135 97.9226 104.386C96.4297 105.653 94.1878 106.296 91.2581 106.296C90.884 106.296 90.5111 106.286 90.1477 106.265L90.0642 106.257C89.1831 106.176 88.3399 105.947 87.5222 105.723L87.3849 105.683C87.3447 105.67 87.2993 105.657 87.2475 105.643C86.3199 105.341 83.3067 104.174 82.2227 101.515C82.1044 101.22 82.0177 100.951 81.9565 100.694L81.9332 100.589C81.8519 100.211 81.8107 99.8073 81.8107 99.3893V97.4883H77.1123V110.999H81.8107V108.549C82.2417 108.805 82.6886 109.048 83.1482 109.276C85.0352 110.202 87.1535 110.763 89.4387 110.941C89.481 110.944 89.5222 110.947 89.5634 110.949L89.6448 110.953C89.9628 110.974 90.2332 110.982 90.4826 110.982C90.5967 110.989 90.7139 110.995 90.8006 110.993C90.9506 110.999 91.1017 110.999 91.2581 110.999C95.7926 110.999 99.3309 109.95 101.774 107.878C104.251 105.779 105.508 103.057 105.508 99.7868C105.508 96.6858 104.385 94.127 102.173 92.1806Z" fill="#FF8025"/>
</svg>
