<svg width="137" height="137" viewBox="0 0 137 137" fill="none" xmlns="http://www.w3.org/2000/svg">
<path d="M68.4628 40L68.4985 40.0007L68.5 40.0009C68.5123 40.0003 68.5247 40 68.5372 40H95.0211C95.2013 40 95.3764 40.0581 95.5193 40.1653L115.68 55.2878C115.874 55.4332 115.991 55.6559 116 55.8947C116.008 56.1334 115.907 56.3634 115.723 56.5216L69.079 96.7998C68.9154 96.941 68.7068 97.0083 68.5 96.9992C68.2932 97.0083 68.0846 96.941 67.921 96.7998L21.2766 56.5216C21.0934 56.3634 20.9921 56.1334 21.0005 55.8947C21.0089 55.6559 21.1262 55.4332 21.3201 55.2878L41.4807 40.1653L41.5078 40.1458C41.6455 40.0511 41.81 40 41.9789 40H68.4628ZM64.3231 82.7525L68.5 93.9628L72.6768 82.7525L68.5 60.21L64.3231 82.7525ZM53.6089 82.3065L66.5925 93.5182L62.7697 83.2581L40.8338 61.2856L53.6089 82.3065ZM74.2301 83.2581L70.4073 93.5182L83.391 82.3065L96.1661 61.2856L74.2301 83.2581ZM63.1553 80.0778L67.4829 56.722H52.8209L63.1553 80.0778ZM73.8445 80.0778L84.1791 56.722H69.5171L73.8445 80.0778ZM60.9673 79.1622L51.038 56.722H38.5642L60.9673 79.1622ZM76.0326 79.1622L98.4358 56.722H85.962L76.0326 79.1622ZM49.6032 78.8475L36.1569 56.722H23.9804L49.6032 78.8475ZM87.3967 78.8475L113.02 56.722H100.843L87.3967 78.8475ZM101.196 55.1225H112.771L101.196 46.4394V55.1225ZM85.9893 55.1225H96.911L83.4354 48.5376L85.9893 55.1225ZM71.1675 55.1225H84.2392L81.5326 48.144L71.1675 55.1225ZM52.7608 55.1225H65.8325L55.4673 48.144L52.7608 55.1225ZM40.089 55.1225H51.0107L53.5644 48.5376L40.089 55.1225ZM24.2286 55.1225H35.8043V46.4394L24.2286 55.1225ZM56.7135 47.0408L68.5 54.9761L80.2864 47.0408L68.5 41.6654L56.7135 47.0408ZM37.4409 45.2118V54.6282L53.208 46.9235L42.0791 41.7327L37.4409 45.2118ZM83.7918 46.9235L99.5591 54.6282V45.2118L94.9207 41.7327L83.7918 46.9235ZM55.0758 46.0224L64.774 41.5995H45.5933L55.0758 46.0224ZM81.924 46.0224L91.4067 41.5995H72.226L81.924 46.0224Z" fill="black"/>
</svg>
