<svg width="137" height="137" viewBox="0 0 137 137" fill="none" xmlns="http://www.w3.org/2000/svg">
<path d="M53.8853 25.0599C61.3265 25.0348 68.6746 24.9661 76.0217 25.0203C77.8165 25.0335 79.3355 26.066 80.3835 27.4681C81.8191 29.3883 83.073 31.4479 84.3517 33.4811C86.8775 37.4974 89.3448 41.5506 91.8903 45.5542C92.3774 46.3202 92.3096 46.7795 91.6812 47.3921C86.5357 52.4082 81.4256 57.4606 76.277 62.4735C75.6826 63.0522 75.6501 63.5469 76.0574 64.1892C78.9487 68.7499 81.8347 73.314 84.7237 77.8762C86.2271 80.2503 87.7477 82.6135 89.2327 84.9989C90.2632 86.6541 90.4095 88.3898 89.546 90.1715C88.583 92.1585 86.9255 93.0497 84.7881 93.047C76.9089 93.0372 69.0297 93.0017 61.1506 92.9588C59.0883 92.9476 57.0261 92.8839 54.9645 92.8202C54.6861 92.8116 54.4121 92.6615 54.136 92.577C54.2686 92.316 54.3416 91.9912 54.5427 91.8037C57.3078 89.2266 60.0991 86.6776 62.8612 84.0973C63.3758 83.6166 63.9148 83.4067 64.6162 83.4077C68.243 83.4129 71.8698 83.3837 75.4967 83.3669C75.8369 83.3654 76.1772 83.3667 76.7259 83.3667C76.5093 82.939 76.3881 82.6429 76.2201 82.3762C72.7435 76.855 69.296 71.3149 65.7634 65.8296C64.3708 63.6672 64.4334 60.5301 66.5506 58.58C69.1687 56.1686 71.6906 53.6526 74.2444 51.1719C76.0567 49.4114 77.8308 47.6108 79.6695 45.8787C80.2597 45.3228 80.3133 44.908 79.8641 44.2331C77.8233 41.1662 75.8437 38.0586 73.7971 34.9957C73.6273 34.7416 73.1229 34.5992 72.7717 34.5951C67.6449 34.535 62.5176 34.4973 57.3904 34.4851C56.7885 34.4837 56.3936 34.2976 56.0699 33.8033C54.3933 31.2435 52.6908 28.7006 51.0186 26.1379C50.5222 25.3771 50.7062 25.083 51.6341 25.0649C52.3531 25.0508 53.0725 25.0617 53.8853 25.0599Z" fill="#3A3B3B"/>
<path d="M64.3241 73.1053C61.1488 76.0267 58.0207 78.9007 54.8946 81.7767C48.8728 87.3168 42.8512 92.8571 36.8314 98.3994C34.9242 100.155 33.0233 101.918 31.1194 103.677C30.913 103.868 30.7273 104.093 30.4927 104.239C30.2165 104.41 29.8975 104.513 29.597 104.646C29.5062 104.34 29.338 104.034 29.3364 103.727C29.318 100.194 29.3085 96.6618 29.3468 93.1298C29.3512 92.7183 29.5471 92.1933 29.8397 91.9178C33.9321 88.0641 38.0576 84.2455 42.1734 80.4165C45.4648 77.3545 48.7515 74.2874 52.045 71.2275C54.5162 68.9317 56.9921 66.6411 59.4717 64.3543C60.1399 63.738 60.3902 63.7964 60.9131 64.6097C62.2808 66.7369 63.6197 68.8839 65.0396 70.9758C65.7656 72.0454 64.9442 72.4793 64.3241 73.1053Z" fill="#28CAC9"/>
<path d="M113.731 44.4678C114.254 44.4678 114.686 44.4678 115.345 44.4678C115.177 44.9593 115.122 45.3488 114.928 45.6493C110.487 52.5513 105.985 59.415 101.598 66.3512C99.7406 69.2887 95.5099 69.1704 93.6753 66.5208C91.5982 63.5209 89.6734 60.4148 87.7277 57.3263C87.5783 57.0892 87.6516 56.491 87.8518 56.2886C89.8284 54.2914 91.8519 52.3404 93.8669 50.3813C94.2711 49.9883 94.6138 50.0248 94.9165 50.5364C95.5514 51.6099 96.2107 52.6689 96.8611 53.7331C97.0814 54.0935 97.3049 54.4519 97.5873 54.909C99.0818 52.5505 100.494 50.318 101.911 48.0885C102.513 47.1403 103.148 46.2118 103.725 45.2485C104.055 44.6988 104.481 44.5128 105.111 44.5145C107.954 44.5218 110.797 44.4872 113.731 44.4678Z" fill="#EF723A"/>
</svg>
