<svg width="137" height="137" viewBox="0 0 137 137" fill="none" xmlns="http://www.w3.org/2000/svg">
<path d="M45.4525 56.2109C45.3816 55.9547 45.2657 55.7284 45.1076 55.5294C44.9495 55.3304 44.7505 55.1723 44.5106 55.0551C44.2707 54.9365 44.0077 54.8779 43.7215 54.8779H33.4063L31.2637 65.5924H34.4776L35.0896 62.5625H39.0082L40.3698 65.5924H43.5852L42.2235 62.5625H42.9118C43.3398 62.5625 43.716 62.4276 44.0431 62.1577C44.3702 61.8851 44.5747 61.5416 44.6565 61.1245L45.4838 57.0056C45.5342 56.7302 45.5233 56.4658 45.4525 56.2109ZM42.1009 57.8016L41.7179 59.7765C41.6974 59.8583 41.6538 59.9251 41.5884 59.9755C41.5202 60.0273 41.4466 60.0532 41.3648 60.0532H35.5789L36.0083 57.9092L34.2336 57.3736H41.7628C41.876 57.3736 41.9659 57.4172 42.0313 57.5031C42.0968 57.5903 42.1213 57.6912 42.1009 57.8016Z" fill="#1A2E35"/>
<path d="M57.162 56.2109C57.0884 55.9547 56.9726 55.7284 56.809 55.5294C56.6455 55.3304 56.4437 55.1723 56.2052 55.0551C55.964 54.9365 55.7064 54.8779 55.431 54.8779H49.3548C48.9255 54.8779 48.5493 55.0115 48.2235 55.2759C47.8964 55.5417 47.6919 55.8893 47.6102 56.3159L46.1708 63.4498C46.1204 63.7251 46.1313 63.9936 46.2022 64.2526C46.2731 64.5143 46.3889 64.7433 46.5457 64.9423C46.7038 65.1413 46.9028 65.2994 47.144 65.418C47.3825 65.5338 47.6456 65.5924 47.9332 65.5924H53.9931C54.4224 65.5924 54.8013 65.4602 55.1339 65.1944C55.4637 64.93 55.6723 64.5838 55.7527 64.1545L57.177 57.0056C57.2384 56.7302 57.2329 56.4658 57.162 56.2109ZM53.8091 57.8016L52.8141 62.8078C52.7623 63.0014 52.6464 63.0982 52.4611 63.0982H49.9055C49.7951 63.0982 49.701 63.0518 49.6301 62.9605C49.5593 62.8787 49.5334 62.7819 49.5538 62.6688L50.5488 57.6639C50.5692 57.5835 50.6128 57.514 50.6796 57.4567C50.7451 57.4008 50.8187 57.3736 50.9004 57.3736H53.4561C53.5692 57.3736 53.6605 57.4172 53.7341 57.5031C53.805 57.5903 53.8309 57.6912 53.8091 57.8016Z" fill="#1A2E35"/>
<path d="M72.2619 56.0569C72.1937 55.832 72.0902 55.6317 71.947 55.4531C71.8053 55.2746 71.6281 55.1342 71.4182 55.0319C71.2097 54.9297 70.9834 54.8779 70.7381 54.8779H59.9786L57.8359 65.5924H61.2325L61.8295 62.5625H69.6518C70.0797 62.5625 70.46 62.4276 70.7926 62.1577C71.1224 61.8851 71.331 61.5416 71.4114 61.1245L72.2837 56.7616C72.3341 56.5149 72.3273 56.2818 72.2619 56.0569ZM68.8558 57.8016L68.4578 59.7765C68.4373 59.8583 68.3978 59.9251 68.3351 59.9755C68.2738 60.0273 68.2015 60.0532 68.1197 60.0532H62.3352L62.7645 57.9092L60.9736 57.3736H68.5027C68.6159 57.3736 68.7072 57.4172 68.7794 57.5031C68.8503 57.5903 68.8762 57.6912 68.8558 57.8016Z" fill="#1A2E35"/>
<path d="M78.2827 54.8779H75.0702L72.9793 65.3212L72.9493 65.4711C72.9507 65.4711 72.9493 65.4725 72.9493 65.4725L72.9248 65.5924H76.1401L77.6708 57.9092L75.8948 57.3736H77.7784L78.2827 54.8779Z" fill="#1A2E35"/>
<path d="M89.9613 54.8779L88.278 63.3585L86.5797 54.8779H81.0391L78.8965 65.5924H82.1104L83.7024 57.6489L81.9114 57.1119H83.8101L85.5084 65.5924H91.0326L93.1766 54.8779H89.9613Z" fill="#1A2E35"/>
<path d="M107.029 54.8779H97.064C96.6347 54.8779 96.2571 55.0115 95.9327 55.2759C95.6056 55.5417 95.4012 55.8893 95.3194 56.3159L93.8351 63.7101C93.7833 63.9555 93.7887 64.1913 93.8501 64.4135C93.9114 64.6383 94.0136 64.8401 94.1567 65.02C94.2985 65.1972 94.477 65.3376 94.691 65.4398C94.9064 65.542 95.1367 65.5924 95.3807 65.5924H102.835C103.172 65.5924 103.495 65.5366 103.807 65.4248C104.118 65.3117 104.397 65.1549 104.641 64.9505C104.886 64.746 105.093 64.5034 105.269 64.224C105.442 63.9432 105.565 63.6338 105.636 63.2972L106.447 59.1646H100.6L100.432 60.0219C100.401 60.1841 100.406 60.3449 100.447 60.503C100.486 60.6625 100.556 60.8002 100.653 60.916C100.75 61.0346 100.869 61.1286 101.013 61.1995C101.157 61.2717 101.31 61.3072 101.472 61.3072H102.805L102.513 62.8078C102.493 62.8896 102.449 62.9578 102.384 63.0137C102.317 63.0695 102.243 63.0982 102.16 63.0982H97.616C97.5043 63.0982 97.4116 63.0559 97.3393 62.9673C97.2685 62.8801 97.2426 62.7819 97.263 62.6688L98.213 57.9092L96.422 57.3736H106.523L107.029 54.8779Z" fill="#1A2E35"/>
<path d="M44.7463 71.5996H35.4439L33.4512 81.5699H36.4416L37.2117 77.7522H42.5246L42.9935 75.4174H37.6669L37.8659 74.4183L36.214 73.9208H44.2897L44.7463 71.5996Z" fill="#1A2E35"/>
<path d="M49.8169 71.5996H46.8251L44.8311 81.5699H47.8242L49.2472 74.4183L47.5952 73.9208H49.3467L49.8169 71.5996Z" fill="#1A2E35"/>
<path d="M60.6832 71.5996L59.1171 79.49L57.536 71.5996H52.3798L50.3857 81.5699H53.3762L54.8577 74.177L53.1908 73.6795H54.9572L56.5383 81.5699H61.6809L63.675 71.5996H60.6832Z" fill="#1A2E35"/>
<path d="M77.4621 72.8386C77.3953 72.6014 77.2904 72.3901 77.1432 72.2048C76.996 72.0208 76.8106 71.8736 76.5871 71.7618C76.3636 71.6528 76.1182 71.5996 75.8538 71.5996H72.4668C71.6599 72.3752 70.5667 72.8508 69.3632 72.8508C68.161 72.8508 67.0666 72.3752 66.261 71.5996H66.2542L66.2256 71.7359V71.7386L66.1983 71.8763L64.2588 81.5699H73.4467C73.8066 81.5699 74.1487 81.5113 74.4704 81.3914C74.7947 81.2742 75.0837 81.1079 75.3413 80.8925C75.5975 80.6799 75.8156 80.425 75.9955 80.132C76.1755 79.8376 76.2995 79.5132 76.3663 79.1629L77.4908 73.58C77.5385 73.3238 77.5289 73.0757 77.4621 72.8386ZM74.3422 74.3202L73.4168 78.9775C73.3977 79.0538 73.3582 79.1179 73.2955 79.1697C73.2355 79.2215 73.166 79.2487 73.0896 79.2487H67.7194L68.6749 74.4183L67.1224 73.9208H74.0287C74.1351 73.9208 74.2182 73.9617 74.2782 74.0421C74.3409 74.1225 74.3613 74.2152 74.3422 74.3202Z" fill="#1A2E35"/>
<path d="M89.0425 71.5996H79.7264L78.133 79.5759C78.084 79.8321 78.0949 80.0815 78.1603 80.3241C78.2257 80.5654 78.3334 80.7794 78.4806 80.9634C78.6278 81.1488 78.8132 81.296 79.0367 81.405C79.2589 81.5154 79.5028 81.5699 79.77 81.5699H87.0484L87.5036 79.2487H81.6073C81.5024 79.2487 81.4179 79.2079 81.3524 79.1274C81.2843 79.047 81.2597 78.9543 81.2802 78.8494L81.5078 77.6677H86.8494L87.276 75.5019H81.9494L82.1634 74.4183L80.4965 73.9208H88.5722L89.0425 71.5996Z" fill="#1A2E35"/>
<path d="M102.459 72.8386C102.394 72.6014 102.286 72.3901 102.139 72.2048C101.992 72.0208 101.806 71.8736 101.584 71.7618C101.361 71.6528 101.117 71.5996 100.85 71.5996H91.2499L89.2559 81.5699H92.2463L92.816 78.7485H96.462L97.731 81.5699H100.721L99.4538 78.7485H100.096C100.494 78.7485 100.844 78.6245 101.149 78.371C101.452 78.1202 101.643 77.7999 101.719 77.4114L102.489 73.58C102.536 73.3238 102.525 73.0757 102.459 72.8386ZM99.3407 74.3202L98.9836 76.1575C98.9645 76.2324 98.9236 76.2951 98.8636 76.3428C98.8009 76.3905 98.7314 76.4137 98.6564 76.4137H93.2712L93.6706 74.4183L92.0187 73.9208H99.0272C99.1308 73.9208 99.2139 73.9617 99.2766 74.0421C99.3366 74.1225 99.3597 74.2152 99.3407 74.3202Z" fill="#1A2E35"/>
<path d="M70.8693 68.3651C70.8693 69.1965 70.1959 69.8698 69.3645 69.8698C68.5331 69.8698 67.8584 69.1965 67.8584 68.3651C67.8584 67.5337 68.5331 66.8604 69.3645 66.8604C70.1959 66.8604 70.8693 67.5337 70.8693 68.3651Z" fill="white"/>
<path d="M73.0452 65.5924C73.0139 65.5515 72.9825 65.512 72.9498 65.4725C72.9498 65.4725 72.9512 65.4711 72.9498 65.4711C72.1061 64.4257 70.814 63.7578 69.3651 63.7578C66.8204 63.7578 64.7568 65.82 64.7568 68.3647C64.7568 69.6977 65.3225 70.8972 66.2261 71.7382C67.0494 72.5042 68.1521 72.9717 69.3651 72.9717C70.6491 72.9717 71.8103 72.4469 72.6459 71.5991C73.4664 70.7677 73.972 69.6255 73.972 68.3647C73.972 67.3234 73.6272 66.3639 73.0452 65.5924ZM72.4673 71.5991C71.6604 72.3747 70.5673 72.8504 69.3638 72.8504C68.1616 72.8504 67.0671 72.3747 66.2616 71.5991C65.4097 70.7841 64.8781 69.635 64.8781 68.3647C64.8781 65.8923 66.8913 63.8791 69.3638 63.8791C71.8376 63.8791 73.8494 65.8923 73.8494 68.3647C73.8494 69.635 73.3192 70.7841 72.4673 71.5991Z" fill="white"/>
<path d="M73.1934 65.593C73.1266 65.499 73.0557 65.409 72.9794 65.3218C72.1139 64.2913 70.8136 63.6357 69.3634 63.6357C66.756 63.6357 64.6338 65.7579 64.6338 68.3653C64.6338 69.757 65.2376 71.0109 66.1985 71.8764C67.0381 72.6329 68.1476 73.0949 69.3634 73.0949C70.7223 73.0949 71.9476 72.5211 72.8118 71.5997C73.605 70.7533 74.093 69.6166 74.093 68.3653C74.093 67.3308 73.759 66.3713 73.1934 65.593ZM66.2612 71.5997C65.4093 70.7847 64.8778 69.6357 64.8778 68.3653C64.8778 65.8929 66.8909 63.8797 69.3634 63.8797C71.8372 63.8797 73.849 65.8929 73.849 68.3653C73.849 69.6357 73.3188 70.7847 72.4669 71.5997C71.66 72.3753 70.5669 72.851 69.3634 72.851C68.1612 72.851 67.0667 72.3753 66.2612 71.5997Z" fill="#1A2E35"/>
<path d="M44.062 68.366C44.062 68.7013 43.788 68.9752 43.4514 68.9752L25.5375 68.9412L24.1786 68.9371C23.8406 68.9371 23.568 68.6617 23.5693 68.3264C23.5693 67.9884 23.8433 67.7158 24.18 67.7158L25.5389 67.7199L43.4527 67.754C43.7908 67.754 44.0647 68.0293 44.062 68.366Z" fill="#ED1C24"/>
<path d="M69.9752 22.7298V42.4537C69.9752 42.7917 69.7012 43.0643 69.3645 43.0643C69.0265 43.0643 68.7539 42.7903 68.7539 42.4537V22.7298C68.7539 22.3917 69.0279 22.1191 69.3645 22.1191C69.7012 22.1191 69.9752 22.3931 69.9752 22.7298Z" fill="#ED1C24"/>
<path d="M114.452 68.3645C114.452 68.7026 114.178 68.9752 113.841 68.9752H95.2757C94.9376 68.9752 94.665 68.7012 94.665 68.3645C94.665 68.0279 94.939 67.7539 95.2757 67.7539H113.84C114.178 67.7539 114.452 68.0265 114.452 68.3645Z" fill="#ED1C24"/>
<path d="M69.2422 103.987C69.1768 104.137 69.1468 104.291 69.1196 104.438C69.0978 104.553 69.076 104.661 69.0405 104.753C69.0133 104.828 68.9846 104.906 68.9574 104.982C68.8933 105.163 68.8306 105.339 68.7529 105.493V103.074C68.9097 102.889 69.0487 102.698 69.1973 102.496C69.4521 103.009 69.4644 103.48 69.2422 103.987Z" fill="#ED1C24"/>
<path d="M69.9755 101.848V106.21C69.951 106.27 69.9251 106.33 69.9006 106.39C69.6961 106.889 69.7466 107.498 69.245 107.86C69.046 107.739 68.8811 107.621 68.7529 107.501V105.969C68.7652 105.954 68.7788 105.936 68.7925 105.918C69.0323 105.622 69.1455 105.216 69.2859 104.847C69.3772 104.604 69.3813 104.328 69.4835 104.09C69.8065 103.35 69.6689 102.685 69.2218 102.02C69.0555 102.239 68.9069 102.451 68.7529 102.651V101.847C68.7529 101.509 69.0269 101.236 69.3635 101.236C69.7016 101.238 69.9755 101.51 69.9755 101.848Z" fill="#ED1C24"/>
<path d="M69.9753 107.105V107.758C69.8854 107.762 69.7954 107.762 69.7041 107.764C69.8445 107.558 69.9181 107.328 69.9753 107.105Z" fill="#ED1C24"/>
<path d="M69.9755 108.021V108.941C69.6934 108.94 69.4113 108.94 69.1291 108.94C69.0051 108.94 68.8783 108.94 68.7529 108.941V108.016C69.0024 108.024 69.2491 108.028 69.4985 108.028C69.658 108.028 69.8161 108.027 69.9755 108.021Z" fill="#ED1C24"/>
<path d="M69.9752 109.202V113.834C69.9752 114.172 69.7012 114.445 69.3645 114.445C69.0265 114.445 68.7539 114.171 68.7539 113.834V109.2H69.1301C69.4068 109.2 69.6889 109.2 69.9752 109.202Z" fill="#ED1C24"/>
<path d="M70.8702 68.3651C70.8702 69.1965 70.1969 69.8698 69.3655 69.8698C68.5341 69.8698 67.8594 69.1965 67.8594 68.3651C67.8594 67.5337 68.5341 66.8604 69.3655 66.8604C70.1969 66.8604 70.8702 67.5337 70.8702 68.3651Z" fill="#ED1C24"/>
<path d="M69.3641 21C43.2055 21 22 42.2055 22 68.3655C22 94.5255 43.2055 115.731 69.3641 115.731C95.5241 115.731 116.731 94.5255 116.731 68.3655C116.731 42.2055 95.5241 21 69.3641 21ZM69.9761 112.191C69.773 112.193 69.5686 112.194 69.3641 112.194C69.161 112.194 68.9566 112.193 68.7535 112.191C45.021 111.865 25.845 92.6786 25.5397 68.942C25.537 68.7498 25.5356 68.5577 25.5356 68.3655C25.5356 68.1488 25.537 67.9348 25.5411 67.7194C25.8832 44.0142 45.0442 24.8655 68.7535 24.5397C68.9566 24.5383 69.161 24.537 69.3641 24.537C69.5686 24.537 69.773 24.5383 69.9761 24.5397C93.6963 24.8655 112.864 44.0333 113.19 67.7549C113.191 67.9566 113.194 68.161 113.194 68.3655C113.194 68.5699 113.191 68.7744 113.19 68.9761C112.864 92.6977 93.6963 111.865 69.9761 112.191Z" fill="#1A2E35"/>
<path d="M79.0637 100.483L79.1005 100.394C79.0937 100.398 79.0855 100.403 79.076 100.408C78.8729 100.518 78.8184 100.788 78.8184 100.788C78.8184 100.788 79.1509 100.915 79.3908 100.995L79.7493 99.9541L79.0637 100.483Z" fill="#1A2E35"/>
<path d="M82.1721 101.423L82.0685 100.976C82.0603 100.939 82.0563 100.901 82.0563 100.862C82.0344 100.856 82.0181 100.855 82.0058 100.855C81.9922 100.855 81.9854 100.856 81.984 100.856C81.9963 100.852 82.0017 100.849 82.0017 100.849L81.9799 100.804L81.8068 100.736C81.7932 100.77 81.7768 100.811 81.7578 100.86C81.6801 101.065 81.6733 101.401 81.5029 101.585C81.3339 101.769 81.3693 102.065 81.3693 102.065C81.3693 102.065 81.7564 102.08 82.0317 102.08C82.0781 102.08 82.1203 102.08 82.1585 102.079C82.1994 101.988 82.2566 101.748 82.1926 101.53C82.1816 101.494 82.1748 101.456 82.1721 101.423Z" fill="#1A2E35"/>
<path d="M86.5082 100.846C86.5027 100.846 86.4973 100.847 86.4945 100.847L86.2274 101.039L86.2165 101C86.1701 101.195 86.1374 101.435 86.0039 101.579C85.8348 101.763 85.8703 102.059 85.8703 102.059C85.8703 102.059 86.2574 102.074 86.5327 102.074C86.579 102.074 86.6213 102.072 86.6595 102.072C86.7017 101.981 86.7576 101.741 86.6935 101.522C86.6295 101.304 86.7003 101.184 86.778 101.028C86.7835 101.017 86.7862 101.009 86.7903 101.001L86.6676 100.911C86.5899 100.854 86.5341 100.846 86.5082 100.846Z" fill="#1A2E35"/>
<path d="M79.6796 100.688L79.3975 101.001C79.4356 101.013 79.4724 101.024 79.5051 101.034C79.5542 100.981 79.6428 100.847 79.6796 100.688Z" fill="#1A2E35"/>
<path d="M92.4843 91.0254C92.4734 91.0404 92.4625 91.0554 92.4502 91.0663C92.4993 91.1712 92.5252 91.2898 92.5415 91.407C92.6342 91.2544 92.6301 91.2012 92.4843 91.0254Z" fill="#1A2E35"/>
<path d="M90.8485 89.1494C90.8334 89.1494 90.8211 89.17 90.8115 89.2056L90.9417 89.2371C90.9075 89.1576 90.8869 89.1494 90.8485 89.1494Z" fill="#1A2E35"/>
<path d="M92.3606 89.8942C92.3538 89.7102 92.3469 89.4212 92.2829 89.4008C92.2774 89.4008 92.2706 89.3994 92.2652 89.3994C92.0703 89.3994 92.028 89.732 91.9585 89.7388C91.9544 89.7402 91.949 89.7402 91.9435 89.7402C91.874 89.7402 91.7772 89.6938 91.6982 89.563C91.6395 89.4635 91.5346 89.4199 91.4869 89.4199C91.4678 89.4199 91.4569 89.428 91.4665 89.443C91.5237 89.4921 91.6055 89.6189 91.6055 89.7456C91.5864 89.7442 91.5673 89.7442 91.5496 89.7442C91.3588 89.7442 91.2838 89.8356 91.2838 89.8356C91.2238 89.6761 91.0834 89.6134 91.0262 89.4458L90.7809 89.4689C90.7754 89.5289 90.77 89.5875 90.7631 89.6325C90.7454 89.5684 90.7236 89.5166 90.6977 89.4757L90.481 89.4948C90.4851 89.4976 90.4905 89.503 90.4946 89.5071L90.3311 89.7102C90.3283 89.7088 90.3256 89.7061 90.3215 89.7061C90.3256 89.7075 90.327 89.7088 90.3283 89.7129L90.3093 89.7347C90.3461 89.796 90.3597 89.8642 90.3379 89.9501C90.4987 90.0291 90.5914 90.1204 90.6064 90.1327L90.9144 90.4407L90.4987 90.5702C90.4537 90.5825 90.0571 90.7038 89.7532 90.7038C89.5651 90.7038 89.3184 90.8333 89.1643 90.945C89.1385 90.9641 89.1303 90.9778 89.1275 90.9778C89.1275 90.9791 89.1303 90.9832 89.133 90.9873C89.2952 91.2231 89.103 91.433 89.0117 91.5325C88.9463 91.6061 88.8699 91.6892 88.8263 91.7956C88.6655 92.2004 88.0985 92.4607 88.0344 92.488L88.0276 92.4921L88.0208 92.4934C87.7196 92.6079 87.3897 92.796 87.3366 92.886C87.3229 92.9541 87.3338 92.9868 87.3379 92.9991L87.5601 93.1558L87.3611 93.3766C87.357 93.3794 86.959 93.821 86.7096 94.1099C86.4752 94.3866 86.1876 94.8146 85.8018 95.413C85.4556 95.9513 85.288 96.9763 85.2866 96.9858L85.2784 97.024L85.2635 97.0581C85.1844 97.2203 85.0495 97.5229 85.0195 97.651C84.9254 98.0613 84.5424 98.0613 84.3966 98.0613C84.203 98.0613 83.9209 97.8854 83.7164 97.7382L83.5134 97.5924L83.6524 97.3825C83.6606 97.3689 83.8718 97.0472 83.9495 96.9395C84.0395 96.8141 84.1213 96.7787 84.2262 96.7405C84.2548 96.7323 84.2835 96.7214 84.3203 96.7051C84.3189 96.671 84.3134 96.6247 84.308 96.5892C84.2957 96.4965 84.2821 96.3902 84.2957 96.2812L84.3094 96.164C84.3407 95.9118 84.383 95.5656 84.4361 95.3789C84.4825 95.2153 84.5792 95.1199 84.6855 95.0736L84.6937 95.03C84.7237 94.895 84.7714 94.7928 84.8218 94.6865C84.8764 94.5774 84.935 94.4548 84.9895 94.253C85.0794 93.9232 85.2416 93.4802 85.3125 93.2935C85.1721 93.3003 85.0563 93.3167 84.9295 93.3167H84.8764C84.8396 93.3126 84.8014 93.3098 84.7619 93.3098C84.1349 93.3098 83.3171 93.8605 82.5552 94.4357C81.7469 95.0463 81.522 95.4879 81.3244 96.1176C81.1268 96.7473 81.1745 96.8959 81.1554 97.0758C81.1363 97.2544 80.6565 98.0435 80.5911 98.1839C80.5257 98.3257 80.5257 98.4565 80.3758 98.5615C80.2258 98.6637 80.0282 99.0576 79.99 99.1707C79.9655 99.2443 79.8837 99.3002 79.8019 99.412C79.776 99.4474 79.7515 99.4869 79.727 99.5346C79.7106 99.5687 79.6942 99.6055 79.6806 99.6491C79.6752 99.6628 79.6724 99.675 79.667 99.6873C79.6684 99.6859 79.6697 99.6846 79.6724 99.6846C79.6765 99.6805 79.682 99.6778 79.6861 99.6737C79.6929 99.6696 79.6956 99.6682 79.6956 99.6682C79.6956 99.6682 79.7038 99.6669 79.7133 99.6669C79.7638 99.6669 79.9137 99.6846 80.0527 99.8781C80.0514 99.8795 80.0514 99.8809 80.0514 99.8849C80.0841 99.8481 80.1168 99.8154 80.1481 99.7841C80.1808 99.7527 80.2122 99.7241 80.2449 99.6968C80.3403 99.6151 80.4357 99.5469 80.5448 99.4706C80.7601 99.3207 80.6102 99.3207 80.7219 99.153C80.8364 98.9826 80.9959 98.7482 81.4471 98.3148C81.8969 97.8841 82.273 97.5365 82.273 97.5365C82.273 97.5365 82.3112 97.5556 82.453 97.5638H82.4598C82.5961 97.5638 82.7037 97.3252 82.9668 97.1385C82.93 97.2871 82.9804 97.5897 83.1508 97.8786C83.3185 98.1676 83.3403 98.3148 83.2421 98.5969C83.144 98.879 82.5511 99.4706 82.1844 99.6546C81.841 99.8277 81.9187 99.9749 81.8955 100.331C81.8941 100.354 81.89 100.378 81.8887 100.403C81.8873 100.422 81.8832 100.442 81.8805 100.464C81.8682 100.528 81.8519 100.599 81.8314 100.674C81.8287 100.688 81.8232 100.701 81.8192 100.718C81.86 100.636 81.8832 100.616 81.8832 100.616C81.8832 100.616 81.9282 100.592 82.0059 100.592C82.0277 100.592 82.0495 100.594 82.074 100.598C82.0863 100.599 82.0986 100.603 82.1108 100.605C82.1722 100.621 82.2417 100.651 82.3221 100.707C82.3221 100.783 82.3139 100.868 82.3248 100.918C82.3289 100.906 82.3316 100.895 82.3385 100.884C82.3385 100.879 82.3425 100.872 82.3439 100.866C82.3439 100.862 82.3453 100.857 82.348 100.853C82.378 100.771 82.4121 100.685 82.4421 100.603C82.4611 100.56 82.4789 100.516 82.4925 100.478C82.5034 100.451 82.5129 100.425 82.5225 100.403C82.6915 99.9504 82.9804 99.8032 83.4561 99.6614C83.9332 99.521 84.2085 99.1271 84.3162 98.9363C84.4266 98.7455 84.5492 98.6078 84.8695 98.4429C85.1912 98.2766 85.4611 97.9345 85.4611 97.9345C85.4611 97.9345 85.6574 98.1826 85.9627 98.2384C86.0063 98.2466 86.0513 98.2493 86.0921 98.2493C86.3211 98.2493 86.5011 98.1458 86.5229 98.1335C86.5133 98.1608 86.3934 98.4879 86.4125 98.879C86.4329 99.2879 86.4629 99.6137 86.3716 99.9095C86.328 100.047 86.328 100.211 86.3416 100.343C86.3457 100.392 86.3525 100.437 86.3566 100.476C86.3716 100.554 86.3852 100.606 86.3852 100.606C86.3852 100.606 86.4302 100.584 86.5079 100.584C86.5856 100.584 86.6946 100.606 86.8214 100.699C86.8609 100.67 86.8936 100.641 86.9236 100.61C86.9522 100.577 86.9767 100.542 86.9972 100.501C87.0449 100.4 87.0653 100.265 87.0612 100.063C87.0544 99.6887 87.0681 99.2675 87.1607 99.0631C87.2057 98.9622 87.2657 98.7959 87.3148 98.6514C87.3625 98.5138 87.4006 98.3979 87.4061 98.3816C87.4061 98.3884 87.4115 98.4143 87.5206 98.4143C87.646 98.4143 87.6037 98.4783 87.6105 98.6105C87.6133 98.6746 87.6746 98.6869 87.7359 98.6869C87.7673 98.6869 87.8 98.6841 87.8259 98.6841C87.8559 98.6841 87.8763 98.6869 87.879 98.7032C87.8859 98.7605 88.0481 99.0344 88.442 99.1816C88.457 99.1135 88.457 98.9295 88.3779 98.7741C88.4351 98.7387 88.4283 98.6174 88.4283 98.6174C88.4283 98.6174 88.4529 98.7182 88.5919 98.7182C88.6001 98.7182 88.6082 98.7182 88.6191 98.7169C88.78 98.7032 88.795 98.4783 88.8236 98.4429C88.8304 98.4333 88.844 98.4279 88.8577 98.4279C88.8945 98.4279 88.9449 98.4592 88.964 98.5192C88.9831 98.5751 89.0321 98.6024 89.0703 98.6024C89.0935 98.6024 89.1126 98.5942 89.1194 98.5765C89.1275 98.556 89.163 98.5451 89.2161 98.5451C89.2938 98.5451 89.4111 98.5697 89.5419 98.6337C89.6796 98.6991 89.8458 98.7223 89.9849 98.7223C90.0653 98.7223 90.1389 98.7128 90.1907 98.7032C90.2125 98.7169 90.2302 98.7387 90.2452 98.7632C90.2997 98.7428 90.3692 98.725 90.4497 98.725C90.5451 98.725 90.68 98.7496 90.8258 98.86C90.8695 98.7795 90.8735 98.7169 90.8735 98.5628C90.8735 98.372 90.7182 98.2384 90.62 98.1744C90.5205 98.1103 90.466 98.0054 90.4524 97.8514C90.436 97.696 90.4292 97.6892 90.3665 97.5392C90.3025 97.3934 90.3174 97.3211 90.466 97.1249C90.973 96.5538 90.9308 95.8873 90.9308 95.8873C90.9308 95.8873 90.9826 95.8696 91.0003 95.8178C91.018 95.7646 91.0821 95.706 91.1939 95.631C91.307 95.5561 91.2143 95.5084 91.2893 95.492C91.3601 95.4811 91.4923 95.3761 91.4487 95.3761H91.4419C91.4378 95.3761 91.4365 95.3789 91.4324 95.3789C91.371 95.3789 91.2961 95.2603 91.2893 95.1758C91.2824 95.0872 91.2933 94.9236 91.2933 94.9236C91.2933 94.9236 91.0848 95.0531 90.9158 95.0531H90.9022C90.7291 95.0463 90.7618 94.8759 90.8463 94.5706C90.9308 94.2639 90.9976 93.9246 91.0398 93.686C91.0821 93.4448 91.1134 93.1422 91.1134 93.1422L91.1843 93.1327C91.1625 93.2131 91.3424 93.3398 91.3261 93.4557C91.307 93.5729 91.4378 93.622 91.4378 93.6929C91.4378 93.7637 91.4555 93.8796 91.6055 93.9246C91.6027 93.9818 91.6491 94.05 91.6491 94.05C91.6491 94.05 91.6627 94.0772 91.7104 94.1617C91.6736 94.2394 91.6777 94.3553 91.7486 94.3553C91.8086 94.3553 91.8331 94.343 91.859 94.2367H91.7977L91.7241 94.1031C91.5768 93.8414 91.5414 93.6233 91.6177 93.4352C91.6777 93.2935 91.7854 93.2063 91.8876 93.1517C91.8931 93.0618 91.9135 92.995 91.9299 92.9487L91.9312 92.9418C91.9353 92.9105 91.9367 92.8014 91.9026 92.428C91.8876 92.2794 91.8713 92.2453 91.859 92.2235C91.8426 92.1936 91.8167 92.1445 91.8045 92.0695C91.7977 92.0232 91.7936 91.9469 91.7854 91.8255C91.7786 91.7383 91.7704 91.5966 91.7636 91.5516C91.7404 91.4848 91.7132 91.4017 91.7118 91.2667C91.6982 91.2435 91.6559 91.1917 91.5346 91.0813L91.4174 90.9723L91.4596 90.8183C91.4814 90.7365 91.5332 90.6125 91.6136 90.4462C91.6723 90.3249 91.7949 90.2458 91.9299 90.2458C91.9953 90.2458 92.0593 90.2649 92.1152 90.299C92.1548 90.3249 92.2038 90.3617 92.2529 90.408C92.3279 90.2772 92.366 90.0414 92.3606 89.8942ZM83.4861 95.4525C83.3948 95.6297 83.3021 95.8055 83.2094 95.98C83.2053 95.9881 83.2012 95.9949 83.1931 95.999C83.1781 96.014 83.1467 96.0099 83.1331 95.9895C83.129 95.984 83.1263 95.9772 83.1249 95.9704C83.114 95.9404 83.1031 95.9118 83.0936 95.8818C83.0854 95.8559 83.0745 95.8287 83.0663 95.8C83.0554 95.7701 83.0431 95.7387 83.0322 95.7074C83.0254 95.6883 83.0186 95.6692 83.0131 95.6487C83.0063 95.6324 83.0022 95.616 82.9968 95.5997C82.9845 95.567 82.9736 95.5356 82.9614 95.5029C82.9573 95.4879 82.9518 95.4716 82.9464 95.4566C82.9423 95.4457 82.9341 95.4443 82.9259 95.4525C82.9232 95.4538 82.9232 95.4538 82.9218 95.4566C82.9218 95.4579 82.9205 95.4593 82.9205 95.462C82.8837 95.5302 82.8482 95.601 82.8101 95.6706C82.8073 95.6774 82.8032 95.6828 82.7951 95.6815C82.7883 95.6801 82.7842 95.676 82.7814 95.6692C82.7746 95.6419 82.7664 95.616 82.7596 95.5901C82.7542 95.5738 82.7501 95.5602 82.746 95.5452C82.7419 95.5329 82.7392 95.5179 82.7351 95.507C82.7337 95.5029 82.731 95.5002 82.731 95.4947C82.7283 95.4879 82.7296 95.4825 82.7337 95.4757C82.7801 95.3857 82.8264 95.2957 82.8741 95.2058C82.9205 95.1158 82.9668 95.0272 83.0131 94.9373C83.0172 94.9305 83.0227 94.9264 83.0295 94.9236C83.0581 94.9141 83.0881 94.9046 83.1181 94.895C83.1317 94.8909 83.1467 94.8855 83.1604 94.88C83.174 94.8759 83.189 94.8718 83.2026 94.8664C83.2121 94.865 83.2176 94.8664 83.2217 94.8732C83.223 94.8759 83.223 94.88 83.223 94.8827C83.2217 94.8855 83.2217 94.8868 83.2203 94.8909C83.1849 94.955 83.1508 95.0204 83.1181 95.0858C83.1154 95.0872 83.114 95.0926 83.114 95.0967C83.1126 95.1049 83.1195 95.1104 83.1276 95.109C83.1372 95.1063 83.1454 95.1036 83.1535 95.1008C83.1781 95.094 83.2012 95.0899 83.2244 95.0831C83.2353 95.0804 83.2435 95.0777 83.2544 95.0749C83.2789 95.0681 83.3048 95.0613 83.328 95.0558C83.3457 95.0518 83.3621 95.0477 83.3784 95.0422C83.4016 95.0368 83.4234 95.0299 83.4452 95.0259C83.4588 95.0218 83.4725 95.019 83.4847 95.015C83.497 95.0109 83.5093 95.0081 83.5202 95.0068C83.5474 95 83.5706 94.9918 83.5951 94.985C83.6129 94.9822 83.6292 94.9768 83.6469 94.9713C83.6701 94.9659 83.6906 94.9618 83.711 94.9564C83.7151 94.9564 83.7165 94.955 83.7192 94.9523C83.7274 94.9523 83.7314 94.9523 83.7355 94.9577C83.7383 94.9632 83.7383 94.9686 83.7369 94.9741C83.7369 94.9754 83.7355 94.9768 83.7355 94.9782C83.7096 95.0272 83.6837 95.0777 83.6578 95.1281C83.6538 95.1349 83.6483 95.1376 83.6415 95.139C83.6183 95.1458 83.5938 95.1513 83.5706 95.1581C83.5543 95.1622 83.5365 95.1676 83.5202 95.1731C83.4997 95.1772 83.4779 95.1826 83.4561 95.1881C83.4425 95.1921 83.4275 95.1962 83.4139 95.2003C83.3852 95.2071 83.358 95.214 83.3321 95.2208C83.3144 95.2262 83.298 95.2289 83.2803 95.2344C83.2599 95.2399 83.238 95.2453 83.2203 95.2508C83.2081 95.2521 83.1972 95.2548 83.1862 95.2589C83.174 95.263 83.1631 95.2657 83.1508 95.2698C83.1249 95.2739 83.1004 95.2821 83.0758 95.2889C83.0745 95.2889 83.0731 95.2889 83.0731 95.2889C83.0636 95.2916 83.0609 95.2971 83.0636 95.3039C83.0731 95.3284 83.0813 95.353 83.0881 95.3761C83.0949 95.398 83.1017 95.417 83.1086 95.4375C83.1208 95.4702 83.1317 95.5015 83.144 95.5343C83.1481 95.5493 83.1535 95.5656 83.159 95.5806C83.1658 95.601 83.174 95.6242 83.1822 95.6447C83.1849 95.6542 83.1958 95.6556 83.2012 95.6501C83.2026 95.6487 83.204 95.6447 83.2053 95.6433C83.2271 95.601 83.2489 95.5602 83.2721 95.5165C83.2748 95.5097 83.2735 95.5029 83.2653 95.5002C83.2408 95.4852 83.2162 95.4729 83.1917 95.462C83.1767 95.4525 83.1713 95.4375 83.1767 95.4211C83.1794 95.4116 83.189 95.4061 83.1971 95.402C83.2176 95.398 83.2367 95.3911 83.2558 95.3857C83.2721 95.3802 83.2871 95.3762 83.3007 95.3721C83.313 95.368 83.3253 95.3639 83.3389 95.3612C83.343 95.3598 83.3471 95.3612 83.3512 95.3625C83.3948 95.3857 83.4357 95.4075 83.4793 95.4307C83.4902 95.4361 83.4916 95.4429 83.4861 95.4525Z" fill="#1A2E35"/>
<path d="M79.3976 101.001C79.3933 101 79.3919 100.997 79.3905 100.997L79.3848 101.016L79.3976 101.001Z" fill="#1A2E35"/>
<path d="M85.8334 92.8019C85.8007 92.8987 85.7694 92.9805 85.738 93.0459C85.7162 93.0963 85.6944 93.1372 85.674 93.1726C85.6235 93.2612 85.5908 93.2967 85.5908 93.2967C85.5908 93.2967 85.355 93.9073 85.2432 94.3217C85.1315 94.736 84.9993 94.8559 84.9529 95.0836C84.9066 95.3085 84.9066 95.3085 84.9066 95.3085C84.9066 95.3085 84.8848 95.3016 84.8548 95.3016C84.803 95.3016 84.7267 95.3248 84.6899 95.4489C84.6326 95.6465 84.5863 96.0895 84.559 96.3143C84.529 96.5392 84.6803 96.8296 84.4745 96.925C84.2673 97.019 84.2387 96.9904 84.1651 97.0926C84.0888 97.1962 83.8721 97.5247 83.8721 97.5247C83.8721 97.5247 84.2496 97.7987 84.3982 97.7987C84.5481 97.7987 84.7185 97.7987 84.7648 97.5915C84.8112 97.3857 85.0279 96.9441 85.0279 96.9441C85.0279 96.9441 85.2024 95.8618 85.584 95.2703C85.9643 94.6788 86.26 94.2331 86.5136 93.9373C86.7684 93.6415 87.1692 93.1985 87.1692 93.1985C87.1692 93.1985 87.0206 93.0936 87.0847 92.8183C87.1487 92.5429 87.9311 92.2472 87.9311 92.2472C87.9311 92.2472 88.4586 92.0155 88.5853 91.6965C88.7134 91.3803 89.0038 91.259 88.9192 91.1363C88.8347 91.0137 88.8443 90.8542 89.0133 90.7329C89.1823 90.6102 89.4835 90.4398 89.7561 90.4398C90.0301 90.4398 90.424 90.3185 90.424 90.3185C90.424 90.3185 90.2931 90.1877 90.0669 90.1209C89.8665 90.0623 89.583 89.8769 89.8161 89.8769C89.8434 89.8769 89.8802 89.8783 89.9251 89.8851C89.9715 89.8906 90.0069 89.8933 90.0328 89.8933C90.2332 89.8933 89.8325 89.712 89.6907 89.603C89.5953 89.5307 89.6212 89.4803 89.7248 89.4803C89.7943 89.4803 89.902 89.5035 90.0287 89.5566C90.2018 89.6275 90.2809 89.6711 90.3177 89.697C90.2223 89.607 89.9333 89.3385 89.8406 89.284C89.8911 89.2827 89.936 89.2786 89.9756 89.2758C89.9742 89.2745 89.9701 89.2745 89.9687 89.2745C89.9606 89.2254 89.9497 89.1845 89.9374 89.1464C89.9238 89.0959 89.9047 89.055 89.887 89.0182C89.8543 88.9528 89.8175 88.9051 89.7888 88.8533C89.7289 88.7511 89.5558 88.6489 89.4494 88.6175C89.3445 88.5862 89.2913 88.578 89.1823 88.5153C89.0719 88.4512 88.8743 88.4062 88.8743 88.4062L88.8538 88.3558C88.8538 88.3558 88.8865 88.2359 88.9765 88.165C89.0678 88.0941 89.0801 87.9674 89.0801 87.9674C89.0801 87.9674 89.2341 87.9115 89.2205 87.7493C89.2068 87.5871 89.0228 87.4876 89.0228 87.4876C89.0228 87.4876 89.0501 87.4467 89.0433 87.3963C89.0365 87.3472 88.9233 87.1223 88.8525 87.0582C88.7816 86.9942 88.5935 86.8606 88.5294 86.8334C88.4913 86.8224 88.4354 86.8184 88.37 86.8184C88.2418 86.8184 88.081 86.8402 87.972 86.8961C87.8111 86.9806 87.6789 87.3785 87.6789 87.3785C87.3627 87.4358 87.1828 87.3854 87.1964 87.5476C87.2046 87.6334 87.3354 87.6552 87.454 87.6552C87.5576 87.6552 87.6544 87.6402 87.6544 87.6402C87.6544 87.6402 87.7225 87.7288 87.6816 87.7902C87.6435 87.8542 87.6503 87.8679 87.6857 88.0382C87.7225 88.2073 87.7253 88.334 87.7253 88.334C87.7253 88.334 87.5085 88.409 87.1991 88.4935C86.887 88.578 86.6539 88.9923 86.5504 89.4994C86.4468 90.0064 86.4372 90.7315 86.4277 90.8446C86.4195 90.9578 86.5231 91.0314 86.5504 91.1445C86.5776 91.259 86.4563 91.473 86.3814 91.5221C86.3064 91.5684 86.3064 91.6434 86.2123 91.7197C86.1346 91.7824 86.1742 91.8505 86.211 91.8505C86.2178 91.8505 86.226 91.8464 86.2314 91.8396C86.2382 91.8328 86.245 91.8315 86.2519 91.8315C86.2778 91.8315 86.2968 91.8873 86.2968 91.8873C86.2968 91.8873 86.0488 92.1995 85.9057 92.5879L85.7571 92.6138L85.6099 92.6397C85.584 92.7256 85.5581 92.7978 85.5336 92.8578L85.6862 92.8305L85.8334 92.8019Z" fill="#1A2E35"/>
<path d="M92.4809 92.3666C92.4809 92.3666 92.3664 92.0762 92.3282 91.8214C92.2914 91.5692 92.2914 91.3143 92.1973 91.1453C92.1033 90.9777 92.2014 90.8877 92.256 90.8877C92.3064 90.8877 92.166 90.6424 91.9752 90.5224C91.9616 90.5142 91.9452 90.5088 91.9302 90.5088C91.8975 90.5088 91.8661 90.5279 91.8511 90.5592C91.8062 90.6533 91.7367 90.8046 91.7148 90.8877C91.8893 91.0499 91.9738 91.1494 91.9738 91.2543C91.9738 91.3593 91.9943 91.4165 92.0174 91.4792C92.0379 91.5433 92.0515 91.9372 92.0665 92.0299C92.0801 92.1212 92.1374 92.1008 92.1646 92.4033C92.1919 92.7059 92.2082 92.9376 92.1851 93.0085C92.1646 93.0794 92.1319 93.1666 92.1592 93.3247C91.9343 93.3902 91.6985 93.5224 91.9534 93.9735C92.0515 93.9735 92.0801 93.8468 92.0174 93.8181C91.9793 93.8031 92.042 93.795 92.1278 93.795C92.1878 93.795 92.2614 93.7991 92.32 93.8031C92.3268 93.8031 92.3323 93.8045 92.3391 93.8045C92.3691 93.8045 92.3895 93.7963 92.4045 93.7813C92.4195 93.7663 92.4304 93.7445 92.4413 93.7173C92.4522 93.69 92.4604 93.6573 92.4727 93.6205C92.4849 93.5837 92.4999 93.5428 92.5245 93.4992C92.6376 93.4147 92.6512 93.2375 92.5804 93.1257C92.5095 93.0153 92.5027 92.7986 92.4809 92.3666Z" fill="#1A2E35"/>
<path d="M92.7451 92.408L92.7465 92.4203V92.4053C92.7451 92.4066 92.7451 92.4066 92.7451 92.408Z" fill="#1A2E35"/>
<path d="M90.7126 99.1065C90.7126 99.1065 90.7112 99.1065 90.7112 99.1051C90.6144 99.0152 90.5245 98.9893 90.4495 98.9893C90.3528 98.9893 90.2887 99.0356 90.2887 99.0356C90.2819 99.0397 90.2192 99.0765 90.1783 99.2646C90.1715 99.2878 90.1674 99.3109 90.1633 99.3395C90.1524 99.4036 90.1442 99.469 90.136 99.5331C90.1061 99.7321 90.072 99.9161 89.9438 100.002C89.7762 100.115 89.7694 100.163 89.7898 100.291C89.8103 100.418 89.7694 100.404 89.7694 100.465C89.7694 100.529 89.7258 100.557 89.5077 100.671C89.2896 100.784 89.3101 100.846 89.276 100.959C89.2392 101.073 89.1847 101.03 89.1778 101.192C89.1697 101.354 89.614 101.783 89.7694 101.783C89.9234 101.783 89.9302 101.535 89.9602 101.346C90.012 101.38 90.0365 101.402 90.0502 101.402C90.0692 101.402 90.072 101.369 90.1006 101.291C90.151 101.15 90.241 101.06 90.2846 100.959C90.3255 100.861 90.2274 100.861 90.2642 100.818C90.2982 100.778 90.2914 100.754 90.2642 100.671C90.5095 100.621 90.6594 100.367 90.6294 100.284C90.6022 100.2 90.5804 100.156 90.6376 100.065C90.6935 99.9733 90.6581 99.8875 90.6512 99.833C90.6444 99.7812 90.684 99.653 90.7303 99.4813C90.7344 99.4663 90.7371 99.4486 90.7426 99.4309C90.7507 99.3941 90.7576 99.3654 90.7616 99.3409V99.3395C90.7794 99.2319 90.7507 99.2223 90.7276 99.1705C90.7167 99.1474 90.7126 99.1283 90.7126 99.1065Z" fill="#1A2E35"/>
<path d="M76.0665 94.558L75.4695 94.6657L75.4082 94.4735L75.922 94.3809L76.0665 94.558Z" fill="black"/>
<path d="M86.4038 92.7L85.8327 92.8022L85.6842 92.8308L85.5315 92.8581L76.3613 94.506L76.3517 94.4937L76.2168 94.3274L85.6078 92.64L85.755 92.6141L85.9036 92.5882L86.3425 92.5078L86.4038 92.7Z" fill="black"/>
<path d="M78.808 98.114C78.3337 97.855 77.9943 97.5115 77.8021 96.9827C77.5759 96.3639 77.2351 95.8146 76.6477 95.4302C76.4391 95.2926 76.3451 94.9764 76.1488 94.6574L76.067 94.5579L75.9226 94.3807L75.804 94.2322C75.8694 93.6679 75.9253 93.1881 75.9798 92.7097C75.9185 92.6797 75.8558 92.6511 75.7917 92.6211C75.6254 92.8255 75.4455 93.0191 75.2929 93.2331C75.1007 93.5084 74.9194 93.7946 74.7518 94.0863C74.4955 94.5334 74.2638 94.7433 73.9367 94.7433C73.7581 94.7433 73.5523 94.6806 73.2974 94.5606C72.9799 94.4107 72.6732 94.2185 72.3951 94.0032C72.158 93.8205 71.9249 93.6924 71.6578 93.6924C71.5514 93.6924 71.4424 93.7128 71.3252 93.7565C70.8768 93.9187 70.4338 93.9936 69.9894 93.9936C69.4688 93.9936 68.9468 93.8914 68.4206 93.7169C68.2135 93.6474 67.994 93.6024 67.7773 93.6024C67.4556 93.6024 67.1421 93.7033 66.8927 93.98C65.9468 95.0322 64.3943 95.497 63.9418 97.029C63.9228 97.0944 63.8451 97.1394 63.8001 97.2008C63.2385 97.9599 62.5911 98.651 62.2667 99.5833C62.0977 100.073 61.7024 100.487 61.4135 100.937C61.3235 101.074 61.2376 101.219 61.16 101.366C60.8533 101.958 60.5711 102.561 60.244 103.139C59.8774 103.791 59.429 104.4 59.1087 105.072C59.0173 105.267 59.1795 105.672 59.3526 105.865C59.3703 105.886 59.4099 105.895 59.4603 105.895C59.632 105.895 59.9428 105.793 60.0573 105.668C60.3026 105.399 60.5207 105.039 60.5875 104.686C60.7565 103.78 61.4748 103.31 62.0773 102.803C62.7288 102.252 63.2672 101.651 63.6679 100.912C64.0032 100.296 64.4093 99.7523 65.1467 99.4565C65.5488 100.218 65.8896 100.99 66.3421 101.688C66.6869 102.217 66.597 102.745 66.5697 103.292C66.5561 103.57 66.5152 103.849 66.4702 104.125C66.2957 105.174 66.4702 106.274 65.7873 107.251C65.557 107.58 65.3212 107.715 65.0704 107.715C64.9559 107.715 64.8373 107.688 64.7147 107.636C63.4784 107.122 62.1863 107.018 60.8737 106.976C60.1813 106.956 59.4917 106.879 58.7993 106.852C58.7665 106.849 58.7311 106.849 58.6984 106.849C58.4258 106.849 58.1518 106.89 57.8765 106.909C57.8697 106.973 57.8629 107.038 57.8574 107.103C58.036 107.226 58.2023 107.431 58.3944 107.461C59.7547 107.667 61.1177 107.85 62.4848 108.011C62.8814 108.058 63.2726 108.02 63.4825 108.47C63.5207 108.553 63.6979 108.582 63.8178 108.617C64.3248 108.764 64.836 108.905 65.3457 109.048H67.0454C67.1844 109.011 67.3221 108.946 67.4625 108.944C67.8932 108.94 68.3225 108.94 68.7532 108.94C68.8786 108.939 69.004 108.939 69.1294 108.939C69.4115 108.939 69.6937 108.939 69.9758 108.94C70.2811 108.94 70.5892 108.942 70.8958 108.944C71.0103 108.946 71.1221 109.011 71.2366 109.048H71.6905C72.3856 108.694 73.108 108.52 73.859 108.52C74.122 108.52 74.3878 108.541 74.6577 108.585C74.6836 108.587 74.7081 108.589 74.734 108.589C74.9439 108.589 75.1702 108.469 75.376 108.36C74.6373 107.937 73.8645 107.767 73.0835 107.767C72.789 107.767 72.4933 107.791 72.1989 107.835C71.456 107.945 70.7159 108.004 69.9758 108.02C69.8164 108.026 69.6582 108.027 69.4988 108.027C69.2507 108.027 69.0026 108.023 68.7532 108.015C68.1453 107.994 67.5388 107.951 66.9282 107.891C66.7837 106.829 67.1789 105.951 67.6683 105.097C67.731 104.988 67.8305 104.862 67.8196 104.754C67.7364 104.016 68.0744 103.458 68.5297 102.932C68.6074 102.842 68.6823 102.748 68.7532 102.653C68.9072 102.452 69.0558 102.241 69.2221 102.022C69.6691 102.687 69.8068 103.351 69.4838 104.092C69.3816 104.328 69.3788 104.606 69.2861 104.847C69.1458 105.217 69.034 105.623 68.7927 105.918C68.7791 105.936 68.7655 105.954 68.7532 105.969C68.2734 106.578 68.2503 107.039 68.7532 107.501C68.8813 107.62 69.0463 107.739 69.2453 107.861C69.7468 107.497 69.6964 106.888 69.9009 106.39C69.9254 106.329 69.9513 106.27 69.9758 106.21C70.3847 105.223 70.8372 104.254 71.2625 103.274C71.4138 102.932 71.606 102.589 71.6741 102.227C71.9399 100.822 72.6855 99.8218 73.9708 99.1771C74.321 98.9999 74.655 98.914 74.9835 98.914C75.331 98.914 75.6759 99.0108 76.0303 99.203C76.0875 99.2343 76.1556 99.2425 76.2265 99.2425C76.3124 99.2425 76.4037 99.2303 76.4923 99.2303C76.5168 99.2303 76.5414 99.2303 76.5659 99.2343C76.9639 99.2739 77.3905 99.248 77.749 99.3911C77.9016 99.4538 78.0461 99.4865 78.1783 99.4865C78.3691 99.4865 78.5341 99.4156 78.6676 99.2602C78.8653 99.0244 78.9512 98.6851 79.0466 98.3811C79.0643 98.3198 78.9103 98.1698 78.808 98.114Z" fill="#1A2E35"/>
<path d="M47.7429 101.844C47.732 101.753 47.7388 101.659 47.7388 101.566C47.7429 101.523 47.7483 101.479 47.751 101.437C47.7388 101.427 47.7238 101.42 47.7102 101.413C47.5657 101.355 47.364 101.379 47.1854 101.42C47.1091 101.58 47.03 101.736 46.9919 101.903C46.9619 102.024 46.9223 102.107 46.8515 102.158L46.8665 102.163C46.8665 102.163 47.5084 102.571 47.7238 102.045C47.7442 102.019 47.7633 101.997 47.7783 101.976C47.7633 101.933 47.7483 101.889 47.7429 101.844ZM48.7856 101.713C48.7065 101.559 48.5607 101.457 48.4066 101.412C48.3767 101.456 48.3453 101.498 48.314 101.54C48.2117 101.678 48.1027 101.811 47.9855 101.935C47.961 101.963 47.9282 101.978 47.8928 101.991L47.8983 102.045C47.8983 102.045 48.2554 102.541 48.7297 101.844C48.7147 101.832 48.746 101.751 48.776 101.723L48.7856 101.713ZM53.1921 95.1096C53.1867 95.0905 53.173 95.0551 53.1649 95.0469C52.8337 94.9324 52.4588 94.4295 52.268 94.1432C52.1644 93.9838 52.069 93.8161 51.9981 93.6348C51.945 93.4945 51.9 93.3404 51.9136 93.1864C51.915 93.1373 51.9354 93.0801 51.9464 93.0351C51.9941 92.8607 52.0309 92.6794 52.0677 92.4981C52.1372 92.1342 52.1985 91.7675 52.2544 91.4009C52.2762 91.2223 52.3144 91.0329 52.3144 90.8571C52.3062 90.699 52.2626 90.5381 52.2053 90.3882C52.1126 90.4972 51.9709 90.6472 51.8319 90.6158C51.7951 90.6022 51.7678 90.5763 51.7296 90.5681C51.5429 90.5177 51.3385 90.5245 51.1435 90.5327C51.1122 90.5517 51.0754 90.5667 51.0304 90.5763C50.9118 90.6063 50.7973 90.6567 50.6897 90.7139C50.597 90.7603 50.5261 90.7753 50.477 90.6662C50.4252 90.549 50.3789 90.4318 50.3298 90.3132C50.2412 90.3609 50.0995 90.7167 50.1431 90.823C50.3108 91.2223 50.229 91.589 50.0272 91.9556C49.9496 92.0974 49.9059 92.265 49.8855 92.4286C49.8664 92.5717 49.9046 92.723 49.9114 92.8716C49.9209 93.0447 49.8487 93.1673 49.7097 93.2818C49.5529 93.4127 49.4003 93.5544 49.2572 93.7016C48.8169 94.5017 48.5525 95.3863 48.393 96.2804C48.3358 96.6048 48.2962 96.9319 48.2649 97.2604C48.2104 97.319 48.1545 97.3776 48.0972 97.4349C48.04 97.6393 48.0018 97.8451 47.995 98.0619C47.9923 98.239 47.9487 98.4435 47.8478 98.5852C47.7265 98.7583 47.6734 98.926 47.6993 99.1223C47.7701 99.6607 47.6543 100.176 47.5057 100.686C47.4485 100.875 47.3503 101.055 47.2699 101.239C47.2563 101.272 47.2427 101.303 47.2263 101.336C47.4021 101.299 47.5943 101.285 47.7374 101.347C47.7456 101.349 47.7524 101.353 47.762 101.356C47.8356 100.744 48.0318 100.174 48.4707 99.7138C48.6111 99.5652 48.8237 99.4698 49.02 99.3921C49.1822 99.3294 49.264 99.4099 49.2667 99.5857C49.2749 100.016 49.1699 100.408 48.8919 100.751C48.7379 100.943 48.5975 101.148 48.4544 101.349C48.6084 101.4 48.7556 101.505 48.8414 101.662C49.1222 101.393 49.4044 101.129 49.6879 100.861C49.7056 100.844 49.7219 100.822 49.7451 100.815C50.2603 100.661 50.458 100.204 50.7169 99.8024C50.8028 99.6688 50.9132 99.5502 51.0236 99.4358C51.0563 99.4003 51.1463 99.3799 51.1831 99.4003C51.2212 99.4235 51.2526 99.5094 51.2417 99.5571C51.1749 99.8201 51.1149 100.086 51.0154 100.337C50.8369 100.785 50.582 101.189 50.2808 101.561C50.3367 101.559 50.3993 101.567 50.4634 101.595C50.5466 101.632 50.6161 101.696 50.6706 101.786C50.7265 101.723 50.8001 101.671 50.86 101.61C50.9132 101.552 50.9786 101.495 51.0086 101.426C51.224 100.898 51.5852 100.469 51.9409 100.034C52.253 99.6538 52.5474 99.2572 52.8555 98.8742C52.8882 98.8347 52.9304 98.802 52.9754 98.7706C52.9781 98.7434 52.9809 98.7175 52.985 98.6916C53.0013 97.7565 53.1403 96.8338 53.2058 95.907C53.2194 95.6439 53.248 95.3618 53.1921 95.1096ZM49.0486 93.9252C48.8046 94.2019 48.5784 94.4963 48.3603 94.7934C48.1245 95.1178 47.8928 95.4463 47.6856 95.7897C47.5207 96.0596 47.3776 96.3227 47.0818 96.489C46.6825 96.7139 46.3022 96.9796 45.9165 97.2318C45.7652 97.334 45.6316 97.3531 45.4844 97.2182C45.4408 97.1773 45.3563 97.1786 45.2881 97.1609C45.2881 97.2304 45.2718 97.3081 45.2936 97.3694C45.3454 97.5057 45.4081 97.6407 45.4857 97.7661C45.5321 97.837 45.6111 97.9201 45.6861 97.9351C45.8592 97.9692 45.9723 98.0455 46.0541 98.2063C46.1318 98.3604 46.2313 98.3713 46.3512 98.254C46.5843 98.0251 46.7983 97.7743 47.0437 97.5616C47.3081 97.334 47.5957 97.1309 47.8846 96.936C47.9296 96.9074 48.0196 96.9006 48.085 96.9156C48.1041 96.6893 48.134 96.4644 48.1736 96.2409C48.329 95.4095 48.6152 94.5521 49.1127 93.8556C49.0922 93.8802 49.0704 93.9034 49.0486 93.9252ZM65.4659 93.3881C65.3528 93.1333 65.1933 92.8852 65.012 92.6726C64.2556 91.7866 63.3614 91.0452 62.4496 90.3296C60.6791 88.9434 58.8145 87.6963 56.8313 86.6345C56.0994 86.242 55.3566 85.8712 54.5592 85.6259C54.0917 85.4841 53.6474 85.4869 53.1894 85.7117C52.9154 85.8453 52.5883 85.8821 52.2803 85.923C51.9859 85.9625 51.686 85.953 51.3889 85.968C51.1054 85.9857 50.935 86.1206 50.8955 86.4028C50.8573 86.659 50.8382 86.9194 50.845 87.1783C50.8505 87.316 50.9255 87.455 50.9773 87.5872C51.0291 87.7249 51.0986 87.8557 51.1517 87.9934C51.2076 88.1324 51.2294 88.2892 51.3057 88.4146C51.5375 88.8085 51.502 89.2255 51.4339 89.6426C51.3971 89.8689 51.3098 90.0897 51.2717 90.3173C51.2539 90.4236 51.2144 90.4904 51.1449 90.5313C51.3425 90.5109 51.5415 90.4877 51.7405 90.5299C51.7664 90.5368 51.7923 90.5449 51.8169 90.5599C51.8332 90.5695 51.8523 90.5776 51.8741 90.5749C52.0104 90.5436 52.1058 90.4032 52.189 90.2969L52.2244 90.2464L52.2503 90.3037C52.3307 90.4781 52.3934 90.6581 52.4111 90.8502C52.422 91.0411 52.3907 91.2292 52.3743 91.4159C52.3075 91.9747 52.2408 92.5308 52.114 93.0787C52.0581 93.2423 52.1058 93.4072 52.1712 93.5653C52.2408 93.7275 52.3307 93.8856 52.4302 94.0342C52.6319 94.3204 52.8623 94.6189 53.1553 94.8097C53.1771 94.822 53.1935 94.8302 53.2126 94.837C53.4279 94.8997 53.4238 95.1805 53.4375 95.3509C53.447 96.4712 53.2194 97.5848 53.1962 98.6943C53.1908 98.7365 53.1853 98.7815 53.1785 98.8265C53.2098 98.8715 53.2371 98.9178 53.2535 98.9696C53.3407 99.2627 53.4048 99.5639 53.4893 99.8583C53.5124 99.9305 53.5642 100.005 53.6242 100.052C53.7523 100.155 53.8913 100.245 54.0331 100.33C54.0849 100.36 54.1871 100.388 54.2171 100.361C54.412 100.187 54.6464 100.098 54.8918 100.023C54.9068 100.018 54.919 99.9932 54.9218 99.9864C54.8086 99.8337 54.7064 99.7015 54.6151 99.5639C54.5061 99.4003 54.3984 99.2368 54.3043 99.0637C54.2335 98.9301 54.1667 98.7883 54.1394 98.6425C54.1094 98.4994 54.1244 98.3454 54.1353 98.1968C54.1653 97.8397 54.2185 97.4839 54.2321 97.1268C54.2566 96.5503 54.2703 95.9737 54.2621 95.3986C54.258 95.0783 54.2457 94.7443 54.1558 94.4431C54.0753 94.1746 53.8982 93.9265 53.7291 93.6948C53.4865 93.365 53.4729 93.0201 53.5629 92.6399C53.6092 92.4381 53.5942 92.2241 53.6174 92.017C53.6228 91.9611 53.6583 91.8902 53.7033 91.863C53.8886 91.7444 54.089 91.7771 54.2962 91.8139C54.5006 91.8507 54.7132 91.882 54.9218 91.8657C55.2516 91.8398 55.3498 91.6571 55.2707 91.3396C55.2244 91.1487 55.2066 90.9497 55.1889 90.7535C55.1671 90.5149 55.1671 90.2723 55.1371 90.0338C55.0921 89.6576 54.8618 89.3618 54.6669 89.0565C54.521 88.8316 54.3834 88.5849 54.1217 88.4691C53.9745 88.4023 53.9104 88.2987 53.9063 88.1515C53.905 88.0288 53.9104 87.9048 53.9336 87.7835C53.969 87.5913 54.4161 87.4509 54.5578 87.5777C55.0131 87.9811 55.4697 88.3805 55.9195 88.7894C55.9658 88.8303 55.9917 88.9175 55.9917 88.9829C55.9904 89.1956 56.0217 89.4068 56.188 89.5404C56.3297 89.6535 56.5015 89.5813 56.6623 89.5104C56.7168 89.4859 56.8191 89.4995 56.8709 89.5363C57.6396 90.0706 58.3892 90.6335 59.1702 91.1487C60.5973 92.0947 62.0666 92.9697 63.6463 93.643C64.0893 93.8325 64.5377 94.0206 65.0366 94.0138C65.4482 94.0083 65.6295 93.7657 65.4659 93.3881ZM53.1621 86.4178C53.1172 86.5241 53.0817 86.6359 53.0163 86.7299C52.9754 86.7871 52.8923 86.8144 52.8446 86.8444C52.696 86.8062 52.5774 86.7626 52.4561 86.749C52.3811 86.7394 52.283 86.7531 52.2271 86.7981C52.1372 86.8662 52.0677 86.9766 51.9532 86.8608C51.8632 86.7708 51.8905 86.5214 52.005 86.4791C52.313 86.3605 52.6319 86.2651 52.9468 86.1643C52.9686 86.1561 52.9945 86.1615 53.019 86.1656C53.1908 86.1902 53.2317 86.2583 53.1621 86.4178ZM65.1701 93.6403C65.1442 93.688 65.0175 93.7044 64.9412 93.6935C64.3305 93.6144 63.7744 93.365 63.2279 93.1019C60.8862 91.9761 58.7436 90.5381 56.7032 88.9407C56.0912 88.4582 55.5092 87.9334 54.9231 87.4182C54.6996 87.2206 54.5061 86.993 54.3002 86.7762C54.213 86.6877 54.1967 86.5963 54.2498 86.4737C54.3166 86.3196 54.3534 86.1493 54.4215 85.9285C54.9299 86.1452 55.4111 86.3265 55.8691 86.55C58.073 87.624 60.108 88.9693 62.0543 90.455C62.9212 91.1188 63.7649 91.8125 64.5104 92.6153C64.7367 92.8593 64.9302 93.1346 65.1265 93.4045C65.1715 93.4645 65.2001 93.5858 65.1701 93.6403ZM50.4334 101.664C50.3544 101.63 50.274 101.632 50.214 101.642C50.1799 101.682 50.1445 101.723 50.1104 101.764C50.0354 101.848 49.9577 101.926 49.8596 101.95C49.9373 102.06 50.3176 102.553 50.5438 102.066C50.5561 102.04 50.5697 102.017 50.5874 101.995C50.5915 101.945 50.6038 101.895 50.6242 101.855C50.5738 101.761 50.5098 101.697 50.4334 101.664Z" fill="#1A2E35"/>
</svg>
