<svg width="137" height="137" viewBox="0 0 137 137" fill="none" xmlns="http://www.w3.org/2000/svg">
<mask id="mask0_271_44966" style="mask-type:luminance" maskUnits="userSpaceOnUse" x="22" y="21" width="93" height="94">
<path d="M22.1094 21.2832H114.891V114.065H22.1094V21.2832Z" fill="white"/>
</mask>
<g mask="url(#mask0_271_44966)">
<mask id="mask1_271_44966" style="mask-type:luminance" maskUnits="userSpaceOnUse" x="22" y="21" width="93" height="94">
<path d="M68.5001 21.2832C42.8791 21.2832 22.1094 42.0529 22.1094 67.6739C22.1094 93.2949 42.8791 114.065 68.5001 114.065C94.1211 114.065 114.891 93.2949 114.891 67.6739C114.891 42.0529 94.1211 21.2832 68.5001 21.2832Z" fill="white"/>
</mask>
<g mask="url(#mask1_271_44966)">
<path d="M22.1094 21.2832H114.891V114.065H22.1094V21.2832Z" fill="white"/>
</g>
</g>
<mask id="mask2_271_44966" style="mask-type:luminance" maskUnits="userSpaceOnUse" x="21" y="19" width="95" height="96">
<path d="M21 19.9961H116V114.641H21V19.9961Z" fill="white"/>
</mask>
<g mask="url(#mask2_271_44966)">
<path d="M65.3916 20.05C65.1733 20.0708 64.5714 20.1248 64.0496 20.1695C61.3751 20.3982 58.7691 20.8712 55.7463 21.6861C54.9417 21.9044 53.4148 22.3919 52.341 22.7797C52.0281 22.894 51.7152 23.0031 51.6456 23.0281C51.446 23.0884 49.8805 23.7391 49.3088 23.9979C47.7174 24.7089 46.1322 25.5187 44.4368 26.4937C43.6853 26.9261 41.941 28.0592 41.0856 28.6714C39.9723 29.4718 38.3465 30.7348 37.7696 31.2514C37.6449 31.3657 37.2728 31.689 36.9443 31.9769C36.2135 32.6089 33.8269 34.9997 33.0962 35.8303C27.4435 42.2688 23.7793 49.5971 22.0944 57.8297C21.5122 60.6685 21.2389 63.263 21.1848 66.5052C21.1048 71.5019 21.7014 75.9904 23.0839 80.7241C23.3126 81.4996 23.8594 83.1503 24.0829 83.722C24.4758 84.7407 24.6442 85.1637 24.903 85.7697C26.5433 89.6522 28.7657 93.3912 31.406 96.7071C32.5546 98.1541 33.434 99.1332 34.9506 100.66C36.174 101.888 37.412 103.031 38.2966 103.747C39.8974 105.034 40.8517 105.751 42.1001 106.586C49.0646 111.249 56.8107 113.904 65.2429 114.506C66.4851 114.595 69.3541 114.625 70.6867 114.56C75.593 114.322 80.0825 113.427 84.7061 111.757C86.3516 111.165 88.8723 110.071 90.0012 109.459C90.1103 109.4 90.4481 109.221 90.7465 109.062C92.5271 108.123 94.4958 106.894 96.2598 105.616C98.3336 104.115 100.049 102.644 101.982 100.709C104.806 97.8911 107.034 95.0419 109.126 91.5867C109.873 90.3538 110.952 88.3248 111.379 87.3705C111.504 87.092 111.707 86.6346 111.831 86.3571C113.074 83.5525 114.188 80.1171 114.804 77.1442C115.525 73.6692 115.804 70.8897 115.804 67.2255C115.799 63.5271 115.525 60.8473 114.795 57.3567C114.178 54.4337 113.055 50.9089 111.94 48.4329C109.355 42.6762 106.283 38.1618 102.057 33.9166C100.62 32.4696 99.9541 31.8678 98.3034 30.5154C94.0229 27.0155 88.8629 24.1715 83.5876 22.4065C80.0679 21.234 76.5285 20.4928 72.7251 20.1352C71.7002 20.0406 71.2085 20.0251 68.6732 20.0157C67.087 20.0105 65.6109 20.0251 65.3916 20.05ZM71.7054 21.7859C73.5754 21.92 76.3341 22.3171 78.094 22.7007C80.7093 23.2672 83.0408 23.9834 85.5761 24.9917C86.074 25.1912 86.2778 25.2806 87.0823 25.6434C87.2268 25.7079 87.3567 25.763 87.3713 25.763C87.4212 25.763 89.4149 26.7525 89.9513 27.0405C91.5967 27.9407 92.3472 28.3876 93.8441 29.3824C98.1995 32.2701 102.366 36.2824 105.467 40.5786C108.933 45.3706 111.399 50.7197 112.816 56.4867C113.492 59.2611 113.875 61.8961 114.044 64.9834C114.118 66.3409 114.073 69.5425 113.969 70.8803C113.541 76.1546 112.244 81.2106 110.101 85.9683C108.162 90.2738 105.607 94.1968 102.46 97.7019C101.312 98.9846 99.0841 101.143 97.9313 102.106C96.8721 102.987 96.6081 103.196 95.7682 103.821C91.9949 106.626 88.0625 108.729 83.6125 110.315C80.8631 111.294 77.4578 112.114 74.6741 112.468C72.9787 112.681 72.3072 112.736 70.3384 112.84C68.5641 112.934 65.6899 112.84 63.6016 112.611C58.1932 112.03 53.236 110.598 48.4388 108.241C45.7933 106.939 43.5917 105.597 41.2248 103.837C38.3912 101.729 35.6917 99.1582 33.2458 96.2352C31.8633 94.5845 29.9788 91.8652 28.9996 90.12C27.5079 87.4599 26.4539 85.1887 25.5943 82.7865C24.0631 78.5059 23.2128 74.3303 22.9592 69.8606C22.8947 68.7224 22.8947 65.9137 22.9592 64.7152C23.5164 54.3745 27.5776 44.6097 34.568 36.7949C35.3082 35.9644 37.0285 34.2347 37.7249 33.6183C38.0129 33.3646 38.3465 33.0611 38.4702 32.952C38.595 32.8376 38.9629 32.5195 39.2904 32.2462C42.9452 29.2036 47.1904 26.6621 51.4709 24.9719C52.9127 24.4002 53.132 24.316 54.131 23.9875C58.0134 22.71 62.0902 21.9491 66.2367 21.736C67.2606 21.6861 70.7459 21.7163 71.7054 21.7859Z" fill="#BF1E2E"/>
</g>
<path d="M67.1315 24.3014C65.9381 24.3607 64.8394 24.4355 64.2386 24.4948C57.9539 25.1268 51.9686 27.0955 46.5738 30.3023C42.4128 32.7773 38.9076 35.7408 35.6811 39.5089C32.0721 43.725 29.1584 49.0004 27.4537 54.3994L27.3237 54.8214L27.6023 55.5179C27.7614 55.9004 28.0794 56.6956 28.3081 57.2829C28.542 57.8692 29.0794 59.2111 29.4962 60.2652C30.4515 62.6664 32.5294 67.8866 33.7072 70.8553C34.2051 72.0975 35.3984 75.0953 36.3578 77.5173C37.3214 79.9383 38.3016 82.3987 38.5345 82.986C38.7684 83.5723 39.3702 85.0941 39.8775 86.3664C40.3847 87.6387 41.0105 89.2249 41.2797 89.8964C41.5427 90.5679 41.8067 91.2384 41.8712 91.3881C41.9356 91.5367 42.0001 91.7062 42.0198 91.756C42.0396 91.8049 42.0645 91.8402 42.0749 91.8257C42.0895 91.8153 42.1737 91.333 42.2683 90.7613C42.4928 89.4193 43.024 86.1626 43.3379 84.2282C43.4772 83.3935 43.7256 81.8821 43.8898 80.8727C44.053 79.8582 44.3368 78.1483 44.5104 77.0693C44.6902 75.9903 44.9886 74.1567 45.1819 72.9925C45.3711 71.8293 45.605 70.3876 45.7037 69.7857C46.2463 66.4407 46.2411 66.475 46.2952 66.5353C46.3056 66.5446 46.4948 67.0914 46.7131 67.7483C47.2058 69.2192 48.8908 74.2357 50.9739 80.4258C51.8387 82.9954 53.1121 86.7894 53.8075 88.8518C55.1058 92.7155 55.2149 93.0388 55.2201 92.9535C55.2243 92.9244 55.3833 92.1781 55.5725 91.2883C56.3282 87.7988 56.6712 86.2021 56.8656 85.3227C56.98 84.8155 57.1483 84.0348 57.2429 83.5827C57.3375 83.1294 57.4914 82.4143 57.586 81.9912C57.6806 81.5692 57.904 80.5401 58.0787 79.7044C58.2575 78.8697 58.4706 77.8749 58.5558 77.4924C58.64 77.1099 58.7938 76.3937 58.8988 75.9009C60.0672 70.4874 60.3052 69.398 60.3499 69.2836C60.3853 69.1797 60.3998 69.1797 60.7033 69.2389C60.8769 69.2743 61.4487 69.3782 61.9757 69.4676C62.7917 69.6069 62.9309 69.6475 62.9309 69.7213C62.9309 69.7712 62.7958 70.4271 62.6326 71.188C62.0755 73.7586 62.1451 73.4353 61.195 77.8406C60.9767 78.8489 60.5194 80.9871 60.1711 82.5879C59.8281 84.1887 59.4352 85.9984 59.3011 86.6148C59.088 87.594 58.7346 89.2249 58.456 90.543C58.4061 90.7758 58.2325 91.5918 58.0631 92.3569C57.8988 93.123 57.6057 94.4847 57.4124 95.3901C57.218 96.2902 56.9644 97.4784 56.8448 98.0251C56.7263 98.5719 56.5569 99.3421 56.4727 99.7403C56.0247 101.843 55.8116 102.797 55.7918 102.817C55.7513 102.858 55.7263 102.792 55.5528 102.251C55.3584 101.634 53.6588 96.5636 51.6204 90.518C50.1735 86.2271 47.9064 79.4663 47.4345 78.0391C47.1112 77.0641 47.1361 77.0548 46.9521 78.2127C46.7578 79.4456 46.3607 81.8873 45.9522 84.3529C45.7443 85.6107 45.4553 87.3903 45.3066 88.305C45.1518 89.2197 44.8534 91.0544 44.6351 92.3818C44.4169 93.7092 44.183 95.151 44.1133 95.5886C44.0437 96.0262 43.7953 97.5272 43.5666 98.9243C43.3327 100.321 43.1435 101.486 43.1435 101.5C43.1435 101.579 43.0541 101.47 43.024 101.356C43.0042 101.286 42.4429 99.8442 41.7714 98.1592C40.5781 95.1707 39.9523 93.5949 37.3869 87.1366C36.7008 85.4121 35.7206 82.9507 35.2144 81.6679C34.7071 80.3811 34.2498 79.2325 34.1947 79.1077C34.1396 78.984 33.4192 77.1743 32.5835 75.0808C30.9484 70.9645 29.7655 67.9812 27.7967 63.025C27.1002 61.2745 26.4693 59.6935 26.3944 59.5053L26.2552 59.1716L26.2001 59.4305C26.0067 60.2901 25.7136 62.6372 25.5837 64.2921C25.4995 65.3711 25.4995 69.2795 25.5837 70.3086C26.0015 75.4436 27.041 79.7189 28.9692 84.2282C30.7644 88.4152 33.3246 92.4265 36.4275 95.9119C37.1281 96.7029 38.9877 98.5563 39.8619 99.3369C42.9897 102.147 46.5447 104.488 50.3772 106.278C51.9531 107.013 53.2961 107.551 55.0257 108.123C56.8355 108.719 58.8687 109.241 60.7179 109.579C63.4424 110.076 65.5255 110.255 68.5483 110.255C71.4515 110.25 73.4161 110.086 75.9566 109.634C76.2695 109.579 76.6427 109.509 76.7767 109.489C77.4826 109.365 79.6998 108.823 80.5802 108.559C81.7881 108.196 83.4481 107.621 84.2339 107.297L84.6071 107.138V80.8873C84.6071 60.7475 84.6217 54.5876 84.6664 54.4389C84.7506 54.1551 85.104 53.7778 85.3919 53.6687C86.1279 53.3849 86.894 53.7633 87.1174 54.5138C87.1819 54.7372 87.1923 57.8297 87.1923 80.3852C87.1923 94.4753 87.2068 106.004 87.2214 106.004C87.237 106.004 87.3409 105.949 87.4553 105.885C87.5696 105.82 87.9428 105.622 88.2858 105.443C94.0622 102.44 99.0589 98.179 103.036 92.8797C103.474 92.2976 103.643 92.0544 104.413 90.8902C107.506 86.2271 109.664 80.9372 110.732 75.3937C111.155 73.1869 111.374 71.2275 111.463 68.8419C111.722 61.762 110.275 54.8765 107.178 48.5077C106.233 46.569 105.07 44.5753 103.877 42.8654C101.654 39.6732 98.955 36.7148 96.0663 34.3136C95.8573 34.1349 95.584 33.9114 95.4696 33.8116C94.6297 33.1006 92.5965 31.6588 91.2088 30.794C89.7473 29.8792 86.789 28.2878 86.7048 28.373C86.685 28.3928 86.6694 31.3314 86.6694 34.9009V41.3987L86.5551 41.6315C86.4116 41.9205 86.053 42.249 85.8046 42.3186C85.5468 42.3872 85.079 42.3779 84.8847 42.2978C84.6362 42.1939 84.3036 41.8758 84.1892 41.6222C84.0843 41.3987 84.0843 41.3686 84.0603 34.2939L84.0354 27.1891L83.6622 27.0508C82.6726 26.6673 80.6841 26.0259 79.6156 25.7432C79.0282 25.5841 77.4223 25.211 76.7019 25.0665C75.6281 24.8482 73.1469 24.5 72.8891 24.5301C72.7446 24.5447 72.7644 24.4698 72.2873 26.7078C72.1979 27.1049 71.9744 28.1537 71.78 29.0435C71.5856 29.9343 71.2727 31.3854 71.0794 32.2752C70.8902 33.165 70.6813 34.1349 70.6116 34.4384C70.4723 35.06 69.9651 37.4009 69.4131 39.957C69.2094 40.9112 68.9412 42.1544 68.8164 42.7157C68.4391 44.461 67.698 47.8611 66.7042 52.4847C66.4849 53.494 66.2614 54.5231 66.2063 54.7715C66.013 55.6665 65.5161 57.9939 65.5161 58.0189C65.5161 58.0282 65.4215 58.0282 65.3072 58.0137C64.9891 57.9742 63.065 57.6311 62.9902 57.6062C62.906 57.576 62.9205 57.4815 63.2542 55.9649C63.3977 55.309 63.5515 54.6031 63.5972 54.3994C63.6367 54.1957 63.7604 53.624 63.8706 53.1313C63.9798 52.6396 64.2137 51.5554 64.3924 50.7197C64.5764 49.885 64.7895 48.9006 64.8696 48.5326C65.1429 47.2894 65.6107 45.1367 65.8144 44.1824C65.9288 43.6606 66.0972 42.88 66.1918 42.4423C66.2916 42.0047 66.5598 40.7719 66.7884 39.7085C67.0223 38.6389 67.251 37.5807 67.3051 37.3468C67.3549 37.1129 67.5545 36.1837 67.7531 35.2835C67.9464 34.3781 68.1709 33.349 68.2499 32.9966C68.33 32.638 68.4786 31.9675 68.5732 31.505C68.673 31.0372 68.8767 30.0975 69.0254 29.4167C69.1751 28.7306 69.384 27.7712 69.4931 27.2795C69.5971 26.7868 69.7769 25.976 69.8913 25.474C70.0004 24.9719 70.0898 24.5104 70.0898 24.4501C70.0898 24.3461 70.0597 24.3305 69.752 24.3056C69.4131 24.2765 67.6782 24.2765 67.1315 24.3014ZM86.1227 44.4257C86.262 44.4859 86.4459 44.6252 86.5405 44.7292C86.8784 45.1169 86.869 45.0223 86.869 47.6376V49.9993L86.7443 50.2384C86.6008 50.5263 86.3617 50.7446 86.053 50.8839C85.8794 50.9588 85.7599 50.9733 85.4969 50.9588C84.9948 50.9193 84.6414 50.6906 84.4127 50.2426C84.3088 50.0388 84.3036 50.0045 84.3181 47.5825L84.3337 45.1273L84.4969 44.8934C84.8753 44.3467 85.5416 44.1523 86.1227 44.4257ZM64.0245 60.2402C64.4621 60.4647 64.7303 60.892 64.7303 61.3795C64.7303 61.4938 64.6804 61.8067 64.6263 62.0801C64.4122 63.1445 64.0744 64.7349 63.9746 65.1871C63.9153 65.4459 63.8405 65.8191 63.801 66.0176C63.7157 66.45 63.5972 66.6943 63.3436 66.9376C63.09 67.186 62.8509 67.2754 62.458 67.2754C61.8967 67.2754 61.538 67.0571 61.2948 66.5748C61.0911 66.1673 61.0963 65.9833 61.3343 64.869C61.4445 64.3773 61.6233 63.5322 61.7376 63C62.1898 60.8369 62.2199 60.7475 62.5276 60.445C62.9154 60.0666 63.512 59.9824 64.0245 60.2402ZM77.2185 83.6918C77.2341 83.7563 77.2934 84.9693 77.3485 86.3913C77.4971 90.1844 77.5418 91.149 77.5616 91.1687C77.5719 91.1791 78.1541 91.0949 78.8599 90.9806C79.9035 90.8112 80.1467 90.7862 80.1821 90.8413C80.2018 90.8756 80.2465 91.0544 80.2715 91.2332C80.5303 92.9088 80.5802 93.2467 80.5646 93.2966C80.55 93.3413 79.7642 93.4753 77.7954 93.7737C77.4275 93.8288 76.6666 93.9483 76.1156 94.0429C75.4296 94.152 75.0959 94.1863 75.0814 94.152C75.0616 94.0928 75.0065 92.8142 74.862 89.2998C74.678 84.8747 74.6635 84.4527 74.6635 84.0941V83.7365L74.8277 83.7116C74.9119 83.697 75.414 83.6617 75.9317 83.6419C76.4535 83.617 76.9503 83.592 77.0345 83.592C77.1645 83.5827 77.204 83.6024 77.2185 83.6918ZM69.9651 84.7853C69.9755 84.8207 70.0545 86.5254 70.1397 88.5784C70.2291 90.6272 70.2987 92.3122 70.3039 92.3174C70.3185 92.3278 71.7945 92.1032 72.1282 92.0388C72.2769 92.0097 72.5253 91.9743 72.675 91.9546L72.9484 91.9244L73.1126 92.9587C73.361 94.5699 73.3558 94.4597 73.2165 94.4899C73.0825 94.52 72.1126 94.6739 70.2135 94.9628C69.5025 95.072 68.7323 95.1957 68.4984 95.2404C68.2655 95.2809 68.0161 95.3152 67.9423 95.3152H67.8123L67.7832 94.7539C67.7676 94.4504 67.7281 93.545 67.7032 92.755C67.673 91.9598 67.6283 90.8112 67.6034 90.1948C67.4693 87.0576 67.3955 85.1336 67.4152 84.9995L67.4298 84.8498L68.4984 84.7957C69.0857 84.7656 69.6522 84.7354 69.7561 84.7354C69.8663 84.7313 69.9505 84.751 69.9651 84.7853Z" fill="#BF1E2E"/>
</svg>
