<svg width="671" height="671" viewBox="0 0 671 671" fill="none" xmlns="http://www.w3.org/2000/svg">
<rect width="671" height="671" fill="white"/>
<path d="M264.065 247.425H322.689V442.87H263.87L261.134 425.28C256.314 432.056 250.191 437.528 242.765 441.698C235.47 445.867 226.937 447.952 217.166 447.952C202.575 447.952 188.896 445.216 176.129 439.743C163.492 434.271 152.354 426.714 142.713 417.072C133.073 407.299 125.517 396.094 120.045 383.455C114.704 370.686 112.033 357.005 112.033 342.411C112.033 328.469 114.574 315.44 119.654 303.322C124.735 291.204 131.835 280.585 140.954 271.464C150.204 262.213 160.822 254.982 172.807 249.77C184.923 244.558 197.885 241.952 211.694 241.952C222.898 241.952 233.059 244.297 242.179 248.988C251.428 253.548 259.636 259.282 266.801 266.187L264.065 247.425ZM215.603 391.664C223.68 391.664 231.04 389.579 237.684 385.409C244.328 381.24 249.605 375.637 253.513 368.601C257.421 361.565 259.375 353.747 259.375 345.147C259.375 336.548 257.421 328.73 253.513 321.694C249.605 314.658 244.328 309.055 237.684 304.886C231.04 300.716 223.68 298.631 215.603 298.631C207.525 298.631 200.165 300.716 193.521 304.886C187.007 309.055 181.796 314.658 177.888 321.694C174.11 328.73 172.221 336.548 172.221 345.147C172.221 353.747 174.175 361.565 178.083 368.601C181.991 375.637 187.202 381.24 193.716 385.409C200.36 389.579 207.656 391.664 215.603 391.664Z" fill="black"/>
<path d="M498.409 247.425H557.033V442.87H498.214L495.478 425.28C490.658 432.056 484.535 437.528 477.109 441.698C469.814 445.867 461.28 447.952 451.51 447.952C436.919 447.952 423.24 445.216 410.473 439.743C397.836 434.271 386.698 426.714 377.057 417.072C367.417 407.299 359.861 396.094 354.389 383.455C349.048 370.686 346.377 357.005 346.377 342.411C346.377 328.469 348.918 315.44 353.998 303.322C359.079 291.204 366.179 280.585 375.298 271.464C384.548 262.213 395.165 254.982 407.151 249.77C419.266 244.558 432.229 241.952 446.038 241.952C457.242 241.952 467.403 244.297 476.523 248.988C485.772 253.548 493.98 259.282 501.145 266.187L498.409 247.425ZM449.946 391.664C458.024 391.664 465.384 389.579 472.028 385.409C478.672 381.24 483.948 375.637 487.857 368.601C491.765 361.565 493.719 353.747 493.719 345.147C493.719 336.548 491.765 328.73 487.857 321.694C483.948 314.658 478.672 309.055 472.028 304.886C465.384 300.716 458.024 298.631 449.946 298.631C441.869 298.631 434.509 300.716 427.865 304.886C421.351 309.055 416.14 314.658 412.232 321.694C408.454 328.73 406.565 336.548 406.565 345.147C406.565 353.747 408.519 361.565 412.427 368.601C416.335 375.637 421.546 381.24 428.06 385.409C434.704 389.579 442 391.664 449.946 391.664Z" fill="black"/>
</svg>
