<svg width="671" height="671" viewBox="0 0 671 671" fill="none" xmlns="http://www.w3.org/2000/svg">
  <style>
    .logo-path {
    fill: black;
    }
    @media (prefers-color-scheme: dark) {
    .logo-path {
    fill: white;
    }
    }
  </style>
  <path class="logo-path"
    d="M671 671H0V0H671V671ZM177.88 204C160.161 204 143.528 207.339 127.981 214.019C112.603 220.698 98.9789 229.966 87.1104 241.821C75.4089 253.51 66.2987 267.12 59.7793 282.649C53.26 298.179 50 314.877 50 332.744C50 351.446 53.4266 368.98 60.2803 385.344C67.3011 401.541 76.9972 415.901 89.3672 428.425C101.737 440.782 116.029 450.467 132.244 457.48C148.626 464.494 166.178 468 184.9 468C197.438 468 208.387 465.328 217.748 459.984C227.276 454.641 235.133 447.628 241.318 438.945L244.828 461.487H320.303V211.014H245.079L248.59 235.059C239.396 226.209 228.865 218.861 216.996 213.017C205.295 207.005 192.256 204 177.88 204ZM478.577 204C460.858 204 444.225 207.339 428.679 214.019C413.3 220.698 399.676 229.966 387.808 241.821C376.106 253.51 366.996 267.12 360.477 282.649C353.957 298.179 350.697 314.877 350.697 332.744C350.697 351.446 354.124 368.98 360.978 385.344C367.998 401.541 377.694 415.901 390.064 428.425C402.434 440.782 416.727 450.467 432.941 457.48C449.323 464.494 466.876 468 485.598 468C498.135 468 509.084 465.328 518.445 459.984C527.974 454.641 535.831 447.628 542.016 438.945L545.526 461.487H621V211.014H545.776L549.287 235.059C540.093 226.209 529.562 218.861 517.693 213.017C505.992 207.005 492.953 204 478.577 204ZM182.895 276.638C193.259 276.638 202.703 279.309 211.229 284.652C219.754 289.996 226.524 297.176 231.539 306.193C236.554 315.21 239.061 325.229 239.062 336.25C239.062 347.271 236.554 357.291 231.539 366.308C226.524 375.325 219.754 382.505 211.229 387.849C202.703 393.192 193.259 395.863 182.895 395.863C172.698 395.863 163.337 393.192 154.812 387.849C146.453 382.505 139.767 375.325 134.752 366.308C129.737 357.291 127.229 347.271 127.229 336.25C127.23 325.229 129.653 315.21 134.501 306.193C139.516 297.176 146.202 289.996 154.561 284.652C163.086 279.309 172.531 276.638 182.895 276.638ZM483.592 276.638C493.956 276.638 503.401 279.309 511.926 284.652C520.451 289.996 527.221 297.176 532.236 306.193C537.251 315.21 539.759 325.229 539.759 336.25C539.759 347.271 537.251 357.291 532.236 366.308C527.221 375.325 520.451 382.505 511.926 387.849C503.401 393.192 493.956 395.863 483.592 395.863C473.395 395.863 464.034 393.192 455.509 387.849C447.151 382.505 440.464 375.325 435.449 366.308C430.434 357.291 427.927 347.271 427.927 336.25C427.927 325.229 430.351 315.21 435.198 306.193C440.213 297.176 446.9 289.996 455.258 284.652C463.783 279.309 473.228 276.638 483.592 276.638Z" />
</svg>
