<svg width="671" height="671" viewBox="0 0 671 671" fill="none" xmlns="http://www.w3.org/2000/svg">
  <style>
    .logo-path {
      fill: black;
    }
    @media (prefers-color-scheme: dark) {
      .logo-path {
        fill: white;
      }
    }
  </style>
  <path class="logo-path" d="M245.079 211.013H320.303V461.488H244.828L241.318 438.945C235.133 447.628 227.276 454.641 217.748 459.985C208.387 465.328 197.438 468 184.901 468C166.178 468 148.626 464.493 132.244 457.48C116.029 450.467 101.737 440.782 89.3669 428.425C76.9968 415.901 67.3014 401.541 60.2805 385.343C53.4268 368.979 50 351.446 50 332.744C50 314.877 53.2597 298.178 59.779 282.649C66.2984 267.12 75.4088 253.51 87.1102 241.822C98.9788 229.966 112.603 220.698 127.982 214.019C143.528 207.34 160.16 204 177.88 204C192.256 204 205.294 207.006 216.996 213.017C228.864 218.861 239.396 226.209 248.59 235.059L245.079 211.013ZM182.895 395.863C193.259 395.863 202.703 393.192 211.229 387.848C219.754 382.505 226.524 375.324 231.539 366.307C236.554 357.29 239.061 347.271 239.061 336.25C239.061 325.23 236.554 315.211 231.539 306.194C226.524 297.176 219.754 289.996 211.229 284.653C202.703 279.309 193.259 276.638 182.895 276.638C172.53 276.638 163.086 279.309 154.56 284.653C146.202 289.996 139.516 297.176 134.501 306.194C129.653 315.211 127.229 325.23 127.229 336.25C127.229 347.271 129.737 357.29 134.752 366.307C139.767 375.324 146.453 382.505 154.811 387.848C163.337 393.192 172.698 395.863 182.895 395.863Z"/>
  <path class="logo-path" d="M545.777 211.013H621V461.488H545.526L542.016 438.945C535.83 447.628 527.974 454.641 518.446 459.985C509.084 465.328 498.135 468 485.598 468C466.876 468 449.324 464.493 432.942 457.48C416.727 450.467 402.434 440.782 390.064 428.425C377.694 415.901 367.999 401.541 360.978 385.343C354.124 368.979 350.697 351.446 350.697 332.744C350.697 314.877 353.957 298.178 360.477 282.649C366.996 267.12 376.106 253.51 387.808 241.822C399.676 229.966 413.3 220.698 428.679 214.019C444.225 207.34 460.858 204 478.577 204C492.953 204 505.992 207.006 517.693 213.017C529.562 218.861 540.093 226.209 549.287 235.059L545.777 211.013ZM483.592 395.863C493.956 395.863 503.401 393.192 511.926 387.848C520.451 382.505 527.222 375.324 532.236 366.307C537.251 357.29 539.759 347.271 539.759 336.25C539.759 325.23 537.251 315.211 532.236 306.194C527.222 297.176 520.451 289.996 511.926 284.653C503.401 279.309 493.956 276.638 483.592 276.638C473.228 276.638 463.783 279.309 455.258 284.653C446.9 289.996 440.213 297.176 435.198 306.194C430.351 315.211 427.927 325.23 427.927 336.25C427.927 347.271 430.434 357.29 435.449 366.307C440.464 375.324 447.151 382.505 455.509 387.848C464.034 393.192 473.395 395.863 483.592 395.863Z"/>
</svg>
